<svg width="48" height="48" viewBox="0 0 48 48" version="1.1" xmlns="http://www.w3.org/2000/svg" xmlns:xlink="http://www.w3.org/1999/xlink"><defs><path d="M16 0c8.837 0 16 7.163 16 16s-7.163 16-16 16S0 24.837 0 16 7.163 0 16 0zm9.624 16.727v-1.46c0-1.558-.192-3.116-.192-3.116s-.188-1.326-.765-1.91c-.732-.767-1.552-.77-1.928-.816-2.694-.194-6.735-.194-6.735-.194h-.008s-4.04 0-6.734.194c-.377.045-1.197.049-1.929.816-.577.583-.765 1.91-.765 1.91s-.192 1.558-.192 3.115v1.46c0 1.559.192 3.116.192 3.116s.188 1.326.765 1.91c.732.768 1.694.744 2.123.824 1.54.148 6.544.193 6.544.193s4.045-.006 6.739-.2c.376-.045 1.196-.05 1.928-.816.577-.584.765-1.91.765-1.91s.192-1.558.192-3.116zm-11.909 1.481V12.8l5.2 2.714-5.2 2.694z" id="path-1"/></defs><g id="Icon-/-Social-/-Youtube-Symbol" stroke="none" stroke-width="1" fill="none" fill-rule="evenodd"><g id="↳🎨-Color" transform="translate(8 8)"><g id="Icon" fill="#fff"><mask id="mask-2"><use xlink:href="#path-1"/></mask><use id="Mask" xlink:href="#path-1"/></g></g></g></svg>