<svg xmlns="http://www.w3.org/2000/svg" version="1.1" id="Capa_1" x="0" y="0" viewBox="0 0 409.6 409.6" xml:space="preserve" width="512" height="512"><path d="M170.665 0h-153.6C7.685 0 0 7.685 0 17.065v375.47c0 9.38 7.685 17.065 17.065 17.065h153.6c9.385 0 17.07-7.685 17.07-17.065V17.065c0-9.38-7.685-17.065-17.07-17.065zm221.87 0h-153.6c-9.385 0-17.07 7.685-17.07 17.065v153.6c0 9.385 7.685 17.07 17.07 17.07h153.6c9.38 0 17.065-7.685 17.065-17.07v-153.6C409.6 7.685 401.915 0 392.535 0zm0 221.865h-153.6c-9.385 0-17.07 7.685-17.07 17.07v153.6c0 9.38 7.685 17.065 17.07 17.065h153.6c9.38 0 17.065-7.685 17.065-17.065v-153.6c0-9.385-7.685-17.07-17.065-17.07z" fill="#333F48"/></svg>