<svg height="512" viewBox="0 0 64 64" width="512" xmlns="http://www.w3.org/2000/svg"><path fill="#333F48" d="M62 27c1.102 0 2-.897 2-2v-3a1 1 0 00-1-1h-1V5c0-1.102-.898-2-2-2H38c-1.103 0-2 .898-2 2v16h-1a1 1 0 00-1 1v3c0 1.103.897 2 2 2h12v4H35.858c-.447-1.721-1.999-3-3.858-3s-3.411 1.279-3.858 3H16v-4h12c1.102 0 2-.897 2-2v-3a1 1 0 00-1-1h-1V5c0-1.102-.898-2-2-2H4c-1.103 0-2 .898-2 2v16H1a1 1 0 00-1 1v3c0 1.103.897 2 2 2h12v4H1a1 1 0 100 2h13v4H4c-1.103 0-2 .897-2 2v16H1a1 1 0 00-1 1v3c0 1.103.897 2 2 2h26c1.102 0 2-.897 2-2v-3a1 1 0 00-1-1h-1V39c0-1.103-.898-2-2-2H16v-4h12.142c.447 1.721 1.999 3 3.858 3s3.411-1.279 3.858-3H48v4H38c-1.103 0-2 .897-2 2v16h-1a1 1 0 00-1 1v3c0 1.103.897 2 2 2h26c1.102 0 2-.897 2-2v-3a1 1 0 00-1-1h-1V39c0-1.103-.898-2-2-2H50v-4h13a1 1 0 100-2H50v-4zM4 5h22v16h-6v-1a4.999 4.999 0 00-2.207-4.145A3.982 3.982 0 0019 13c0-2.206-1.794-4-4-4s-4 1.794-4 4c0 1.119.464 2.128 1.206 2.855A5 5 0 0010 20v1H4zm8 16v-1c0-1.654 1.346-3 3-3s3 1.346 3 3v1zm1-8c0-1.102.897-2 2-2 1.102 0 2 .898 2 2s-.898 2-2 2c-1.103 0-2-.898-2-2zM2 23h26.001l.001 2H2zm26.002 36H2v-2h26.001zM15 51c1.654 0 3 1.346 3 3v1h-6v-1c0-1.654 1.346-3 3-3zm-2-4c0-1.103.897-2 2-2 1.102 0 2 .897 2 2s-.898 2-2 2c-1.103 0-2-.897-2-2zm13 8h-6v-1a4.999 4.999 0 00-2.207-4.145A3.98 3.98 0 0019 47c0-2.206-1.794-4-4-4s-4 1.794-4 4c0 1.119.464 2.129 1.206 2.855A5 5 0 0010 54v1H4V39h22zm6-21c-1.103 0-2-.897-2-2s.897-2 2-2c1.102 0 2 .897 2 2s-.898 2-2 2zm30.002 25H36v-2h26.001zM49 51c1.654 0 3 1.346 3 3v1h-6v-1c0-1.654 1.346-3 3-3zm-2-4c0-1.103.897-2 2-2 1.102 0 2 .897 2 2s-.898 2-2 2c-1.103 0-2-.897-2-2zm13 8h-6v-1a4.999 4.999 0 00-2.207-4.145A3.98 3.98 0 0053 47c0-2.206-1.794-4-4-4s-4 1.794-4 4c0 1.119.464 2.129 1.206 2.855A5 5 0 0044 54v1h-6V39h22zM38 5h22v16h-6v-1a4.999 4.999 0 00-2.207-4.145A3.982 3.982 0 0053 13c0-2.206-1.794-4-4-4s-4 1.794-4 4c0 1.119.464 2.128 1.206 2.855A5 5 0 0044 20v1h-6zm8 16v-1c0-1.654 1.346-3 3-3s3 1.346 3 3v1zm1-8c0-1.102.897-2 2-2 1.102 0 2 .898 2 2s-.898 2-2 2c-1.103 0-2-.898-2-2zM36 23h26.001l.001 2H36z"/></svg>