<svg xmlns="http://www.w3.org/2000/svg" id="Layer_1" height="512" viewBox="0 0 128 128" width="512" data-name="Layer 1"><path d="M118.795 16.628h-39.41a9.1 9.1 0 00-8.919-7.342H57.534a9.1 9.1 0 00-8.919 7.342H9.205a1.75 1.75 0 00-1.75 1.75v8.5a1.75 1.75 0 001.75 1.75h4v68.95a1.75 1.75 0 001.75 1.75H62.25v6.338a6.644 6.644 0 103.5 0v-6.335h47.294a1.75 1.75 0 001.75-1.75v-68.95h4a1.75 1.75 0 001.75-1.75v-8.5a1.75 1.75 0 00-1.749-1.753zm-51.651 95.443A3.144 3.144 0 1164 108.928a3.147 3.147 0 013.144 3.143zm-9.61-99.285h12.932a5.6 5.6 0 015.312 3.842H52.223a5.6 5.6 0 015.311-3.842zm53.76 83.045H16.706v-67.2h94.588zm5.751-70.7H10.955v-5h106.09z" fill="#333F48"/><path d="M23.907 20.88h-6.946a1.75 1.75 0 000 3.5h6.946a1.75 1.75 0 000-3.5z" fill="#333F48"/></svg>