<svg xmlns="http://www.w3.org/2000/svg" height="512" viewBox="-103 0 512 512.17" width="512"><path d="M267.027 213.918a583.147 583.147 0 01-22.351 3.41l-6.543-68.308c43.887-28.06 56.906-77.313 60.39-111.043A32.857 32.857 0 00286.832 9.44a40.427 40.427 0 00-36.574-8.023 433.123 433.123 0 01-96.606 13.664A433.09 433.09 0 0157.047 1.418a40.377 40.377 0 00-36.574 8.059 32.847 32.847 0 00-11.715 28.5c3.48 33.722 16.492 82.968 60.363 111.027L62.63 217.34a624.518 624.518 0 01-22.352-3.414 34.192 34.192 0 00-33.824 13.652 32.892 32.892 0 00-2.508 34.91 103.401 103.401 0 0046.078 41.582L12 486.148c-2.34 11.274 4.582 22.399 15.727 25.29 11.144 2.89 22.597-3.473 26.035-14.461l30.496-95.856h138.797l30.488 95.82c3.41 11.036 14.895 17.438 26.074 14.528 11.176-2.906 18.09-14.094 15.688-25.39l-37.989-182.052a103.379 103.379 0 0046.079-41.582 32.9 32.9 0 00-2.508-34.91 34.211 34.211 0 00-33.86-13.617zm-39.254 5.484a913.202 913.202 0 01-16.98 1.707l-5.438-57.293a136.116 136.116 0 0016.555-6.039zm-74.12-48.683a197.305 197.305 0 0034.91-2.985l5.18 54.657c-23.68 1.57-39.794 1.62-40.106 1.62-.317 0-16.41-.05-40.11-1.62l5.18-54.657a196.995 196.995 0 0034.945 2.985zM25.737 36.227a15.953 15.953 0 015.887-13.797 22.64 22.64 0 0114.762-5.309 25.5 25.5 0 016.36.852 441.716 441.716 0 00100.905 14.175A441.716 441.716 0 00254.56 17.973a23.426 23.426 0 0121.164 4.5 15.928 15.928 0 015.843 13.789c-5.527 53.539-32.222 117.39-127.914 117.39a139.972 139.972 0 01-71.629-16.886c-.12-.059-.214-.153-.332-.211-38.539-22.606-52.183-63.832-55.953-100.328zM85.43 157.742a135.878 135.878 0 0016.554 6.04l-5.437 57.284a683.294 683.294 0 01-16.98-1.707zM37.48 491.84a4.51 4.51 0 01-4.32 3.148 4.427 4.427 0 01-3.472-1.648 4.523 4.523 0 01-.981-3.781l37.195-178.293A265.089 265.089 0 0092.06 320.3zm161.196-167.324l8.078 25.406H100.55l8.078-25.406a217.505 217.505 0 0090.047 0zM89.652 384.055l5.426-17.067h117.113l5.426 17.067zm188.93 105.437a4.565 4.565 0 01-.965 3.848 4.427 4.427 0 01-3.472 1.648 4.506 4.506 0 01-4.329-3.183l-54.57-171.52a264.102 264.102 0 0026.156-9.039zm9.691-235.043c-11.253 21.266-38.945 38.613-80.05 50.176a201.445 201.445 0 01-109.141 0c-41.105-11.563-68.797-28.91-80.05-50.176a15.695 15.695 0 011.238-16.887 17.068 17.068 0 0117.066-6.828 762.142 762.142 0 00116.316 10.344 762.377 762.377 0 00116.293-10.344 17.074 17.074 0 0117.067 6.828 15.703 15.703 0 011.261 16.887zm0 0" fill="#333F48"/></svg>