<svg width="359" height="208" xmlns="http://www.w3.org/2000/svg" xmlns:xlink="http://www.w3.org/1999/xlink"><defs><path d="M76.277 160.338c5.124 0 9.279 4.156 9.279 9.284 0 5.128-4.155 9.285-9.28 9.285-5.125 0-9.28-4.157-9.28-9.285s4.155-9.284 9.28-9.284zm-22.332 0c5.124 0 9.279 4.156 9.279 9.284 0 5.128-4.155 9.285-9.28 9.285-5.125 0-9.28-4.157-9.28-9.285s4.155-9.284 9.28-9.284zm-22.333 0c5.125 0 9.28 4.156 9.28 9.284 0 5.128-4.155 9.285-9.28 9.285-5.125 0-9.28-4.157-9.28-9.285s4.155-9.284 9.28-9.284zm-22.332 0c5.125 0 9.278 4.156 9.278 9.284 0 5.128-4.153 9.285-9.278 9.285-5.125 0-9.28-4.157-9.28-9.285s4.155-9.284 9.28-9.284zm66.997-26.72c5.124 0 9.279 4.156 9.279 9.284 0 5.128-4.155 9.285-9.28 9.285-5.125 0-9.28-4.157-9.28-9.285s4.155-9.284 9.28-9.284zm-22.332 0c5.124 0 9.279 4.156 9.279 9.284 0 5.128-4.155 9.285-9.28 9.285-5.125 0-9.28-4.157-9.28-9.285s4.155-9.284 9.28-9.284zm-22.333 0c5.125 0 9.28 4.156 9.28 9.284 0 5.128-4.155 9.285-9.28 9.285-5.125 0-9.28-4.157-9.28-9.285s4.155-9.284 9.28-9.284zm-22.332 0c5.125 0 9.278 4.156 9.278 9.284 0 5.128-4.153 9.285-9.278 9.285-5.125 0-9.28-4.157-9.28-9.285s4.155-9.284 9.28-9.284zm66.997-26.72c5.124 0 9.279 4.156 9.279 9.284 0 5.128-4.155 9.285-9.28 9.285-5.125 0-9.28-4.157-9.28-9.285s4.155-9.284 9.28-9.284zm-22.332 0c5.124 0 9.279 4.156 9.279 9.284 0 5.128-4.155 9.285-9.28 9.285-5.125 0-9.28-4.157-9.28-9.285s4.155-9.284 9.28-9.284zm-22.333 0c5.125 0 9.28 4.156 9.28 9.284 0 5.128-4.155 9.285-9.28 9.285-5.125 0-9.28-4.157-9.28-9.285s4.155-9.284 9.28-9.284zm-22.332 0c5.125 0 9.278 4.156 9.278 9.284 0 5.128-4.153 9.285-9.278 9.285-5.125 0-9.28-4.157-9.28-9.285s4.155-9.284 9.28-9.284zm66.997-26.72c5.124 0 9.279 4.157 9.279 9.284 0 5.128-4.155 9.285-9.28 9.285-5.125 0-9.28-4.157-9.28-9.285 0-5.127 4.155-9.284 9.28-9.284zm-22.332 0c5.124 0 9.279 4.157 9.279 9.284 0 5.128-4.155 9.285-9.28 9.285-5.125 0-9.28-4.157-9.28-9.285 0-5.127 4.155-9.284 9.28-9.284zm-22.333 0c5.125 0 9.28 4.157 9.28 9.284 0 5.128-4.155 9.285-9.28 9.285-5.125 0-9.28-4.157-9.28-9.285 0-5.127 4.155-9.284 9.28-9.284zm-22.332 0c5.125 0 9.278 4.157 9.278 9.284 0 5.128-4.153 9.285-9.278 9.285-5.125 0-9.28-4.157-9.28-9.285 0-5.127 4.155-9.284 9.28-9.284zm66.997-26.72c5.124 0 9.279 4.157 9.279 9.284 0 5.128-4.155 9.285-9.28 9.285-5.125 0-9.28-4.157-9.28-9.285 0-5.127 4.155-9.284 9.28-9.284zm-22.332 0c5.124 0 9.279 4.157 9.279 9.284 0 5.128-4.155 9.285-9.28 9.285-5.125 0-9.28-4.157-9.28-9.285 0-5.127 4.155-9.284 9.28-9.284zm-22.333 0c5.125 0 9.28 4.157 9.28 9.284 0 5.128-4.155 9.285-9.28 9.285-5.125 0-9.28-4.157-9.28-9.285 0-5.127 4.155-9.284 9.28-9.284zm-22.332 0c5.125 0 9.278 4.157 9.278 9.284 0 5.128-4.153 9.285-9.278 9.285-5.125 0-9.28-4.157-9.28-9.285 0-5.127 4.155-9.284 9.28-9.284zm66.997-26.72c5.124 0 9.279 4.157 9.279 9.284 0 5.128-4.155 9.285-9.28 9.285-5.125 0-9.28-4.157-9.28-9.285 0-5.127 4.155-9.284 9.28-9.284zm-22.332 0c5.124 0 9.279 4.157 9.279 9.284 0 5.128-4.155 9.285-9.28 9.285-5.125 0-9.28-4.157-9.28-9.285 0-5.127 4.155-9.284 9.28-9.284zm-22.333 0c5.125 0 9.28 4.157 9.28 9.284 0 5.128-4.155 9.285-9.28 9.285-5.125 0-9.28-4.157-9.28-9.285 0-5.127 4.155-9.284 9.28-9.284zm-22.332 0c5.125 0 9.278 4.157 9.278 9.284 0 5.128-4.153 9.285-9.278 9.285-5.125 0-9.28-4.157-9.28-9.285 0-5.127 4.155-9.284 9.28-9.284zM76.277.018c5.124 0 9.279 4.157 9.279 9.284 0 5.128-4.155 9.285-9.28 9.285-5.125 0-9.28-4.157-9.28-9.285 0-5.127 4.155-9.284 9.28-9.284zm-22.332 0c5.124 0 9.279 4.157 9.279 9.284 0 5.128-4.155 9.285-9.28 9.285-5.125 0-9.28-4.157-9.28-9.285 0-5.127 4.155-9.284 9.28-9.284zm-22.333 0c5.125 0 9.28 4.157 9.28 9.284 0 5.128-4.155 9.285-9.28 9.285-5.125 0-9.28-4.157-9.28-9.285 0-5.127 4.155-9.284 9.28-9.284zM9.28.018c5.125 0 9.278 4.157 9.278 9.284 0 5.128-4.153 9.285-9.278 9.285C4.155 18.587 0 14.43 0 9.302 0 4.175 4.155.018 9.28.018z" id="a"/><path d="M76.277 160.338c5.124 0 9.279 4.156 9.279 9.284 0 5.128-4.155 9.285-9.28 9.285-5.125 0-9.28-4.157-9.28-9.285s4.155-9.284 9.28-9.284zm-22.332 0c5.124 0 9.279 4.156 9.279 9.284 0 5.128-4.155 9.285-9.28 9.285-5.125 0-9.28-4.157-9.28-9.285s4.155-9.284 9.28-9.284zm-22.333 0c5.125 0 9.28 4.156 9.28 9.284 0 5.128-4.155 9.285-9.28 9.285-5.125 0-9.28-4.157-9.28-9.285s4.155-9.284 9.28-9.284zm-22.332 0c5.125 0 9.278 4.156 9.278 9.284 0 5.128-4.153 9.285-9.278 9.285-5.125 0-9.28-4.157-9.28-9.285s4.155-9.284 9.28-9.284zm66.997-26.72c5.124 0 9.279 4.156 9.279 9.284 0 5.128-4.155 9.285-9.28 9.285-5.125 0-9.28-4.157-9.28-9.285s4.155-9.284 9.28-9.284zm-22.332 0c5.124 0 9.279 4.156 9.279 9.284 0 5.128-4.155 9.285-9.28 9.285-5.125 0-9.28-4.157-9.28-9.285s4.155-9.284 9.28-9.284zm-22.333 0c5.125 0 9.28 4.156 9.28 9.284 0 5.128-4.155 9.285-9.28 9.285-5.125 0-9.28-4.157-9.28-9.285s4.155-9.284 9.28-9.284zm-22.332 0c5.125 0 9.278 4.156 9.278 9.284 0 5.128-4.153 9.285-9.278 9.285-5.125 0-9.28-4.157-9.28-9.285s4.155-9.284 9.28-9.284zm66.997-26.72c5.124 0 9.279 4.156 9.279 9.284 0 5.128-4.155 9.285-9.28 9.285-5.125 0-9.28-4.157-9.28-9.285s4.155-9.284 9.28-9.284zm-22.332 0c5.124 0 9.279 4.156 9.279 9.284 0 5.128-4.155 9.285-9.28 9.285-5.125 0-9.28-4.157-9.28-9.285s4.155-9.284 9.28-9.284zm-22.333 0c5.125 0 9.28 4.156 9.28 9.284 0 5.128-4.155 9.285-9.28 9.285-5.125 0-9.28-4.157-9.28-9.285s4.155-9.284 9.28-9.284zm-22.332 0c5.125 0 9.278 4.156 9.278 9.284 0 5.128-4.153 9.285-9.278 9.285-5.125 0-9.28-4.157-9.28-9.285s4.155-9.284 9.28-9.284zm66.997-26.72c5.124 0 9.279 4.157 9.279 9.284 0 5.128-4.155 9.285-9.28 9.285-5.125 0-9.28-4.157-9.28-9.285 0-5.127 4.155-9.284 9.28-9.284zm-22.332 0c5.124 0 9.279 4.157 9.279 9.284 0 5.128-4.155 9.285-9.28 9.285-5.125 0-9.28-4.157-9.28-9.285 0-5.127 4.155-9.284 9.28-9.284zm-22.333 0c5.125 0 9.28 4.157 9.28 9.284 0 5.128-4.155 9.285-9.28 9.285-5.125 0-9.28-4.157-9.28-9.285 0-5.127 4.155-9.284 9.28-9.284zm-22.332 0c5.125 0 9.278 4.157 9.278 9.284 0 5.128-4.153 9.285-9.278 9.285-5.125 0-9.28-4.157-9.28-9.285 0-5.127 4.155-9.284 9.28-9.284zm66.997-26.72c5.124 0 9.279 4.157 9.279 9.284 0 5.128-4.155 9.285-9.28 9.285-5.125 0-9.28-4.157-9.28-9.285 0-5.127 4.155-9.284 9.28-9.284zm-22.332 0c5.124 0 9.279 4.157 9.279 9.284 0 5.128-4.155 9.285-9.28 9.285-5.125 0-9.28-4.157-9.28-9.285 0-5.127 4.155-9.284 9.28-9.284zm-22.333 0c5.125 0 9.28 4.157 9.28 9.284 0 5.128-4.155 9.285-9.28 9.285-5.125 0-9.28-4.157-9.28-9.285 0-5.127 4.155-9.284 9.28-9.284zm-22.332 0c5.125 0 9.278 4.157 9.278 9.284 0 5.128-4.153 9.285-9.278 9.285-5.125 0-9.28-4.157-9.28-9.285 0-5.127 4.155-9.284 9.28-9.284zm66.997-26.72c5.124 0 9.279 4.157 9.279 9.284 0 5.128-4.155 9.285-9.28 9.285-5.125 0-9.28-4.157-9.28-9.285 0-5.127 4.155-9.284 9.28-9.284zm-22.332 0c5.124 0 9.279 4.157 9.279 9.284 0 5.128-4.155 9.285-9.28 9.285-5.125 0-9.28-4.157-9.28-9.285 0-5.127 4.155-9.284 9.28-9.284zm-22.333 0c5.125 0 9.28 4.157 9.28 9.284 0 5.128-4.155 9.285-9.28 9.285-5.125 0-9.28-4.157-9.28-9.285 0-5.127 4.155-9.284 9.28-9.284zm-22.332 0c5.125 0 9.278 4.157 9.278 9.284 0 5.128-4.153 9.285-9.278 9.285-5.125 0-9.28-4.157-9.28-9.285 0-5.127 4.155-9.284 9.28-9.284zM76.277.018c5.124 0 9.279 4.157 9.279 9.284 0 5.128-4.155 9.285-9.28 9.285-5.125 0-9.28-4.157-9.28-9.285 0-5.127 4.155-9.284 9.28-9.284zm-22.332 0c5.124 0 9.279 4.157 9.279 9.284 0 5.128-4.155 9.285-9.28 9.285-5.125 0-9.28-4.157-9.28-9.285 0-5.127 4.155-9.284 9.28-9.284zm-22.333 0c5.125 0 9.28 4.157 9.28 9.284 0 5.128-4.155 9.285-9.28 9.285-5.125 0-9.28-4.157-9.28-9.285 0-5.127 4.155-9.284 9.28-9.284zM9.28.018c5.125 0 9.278 4.157 9.278 9.284 0 5.128-4.153 9.285-9.278 9.285C4.155 18.587 0 14.43 0 9.302 0 4.175 4.155.018 9.28.018z" id="c"/><path d="M76.277 160.338c5.124 0 9.279 4.156 9.279 9.284 0 5.128-4.155 9.285-9.28 9.285-5.125 0-9.28-4.157-9.28-9.285s4.155-9.284 9.28-9.284zm-22.332 0c5.124 0 9.279 4.156 9.279 9.284 0 5.128-4.155 9.285-9.28 9.285-5.125 0-9.28-4.157-9.28-9.285s4.155-9.284 9.28-9.284zm-22.333 0c5.125 0 9.28 4.156 9.28 9.284 0 5.128-4.155 9.285-9.28 9.285-5.125 0-9.28-4.157-9.28-9.285s4.155-9.284 9.28-9.284zm-22.332 0c5.125 0 9.278 4.156 9.278 9.284 0 5.128-4.153 9.285-9.278 9.285-5.125 0-9.28-4.157-9.28-9.285s4.155-9.284 9.28-9.284zm66.997-26.72c5.124 0 9.279 4.156 9.279 9.284 0 5.128-4.155 9.285-9.28 9.285-5.125 0-9.28-4.157-9.28-9.285s4.155-9.284 9.28-9.284zm-22.332 0c5.124 0 9.279 4.156 9.279 9.284 0 5.128-4.155 9.285-9.28 9.285-5.125 0-9.28-4.157-9.28-9.285s4.155-9.284 9.28-9.284zm-22.333 0c5.125 0 9.28 4.156 9.28 9.284 0 5.128-4.155 9.285-9.28 9.285-5.125 0-9.28-4.157-9.28-9.285s4.155-9.284 9.28-9.284zm-22.332 0c5.125 0 9.278 4.156 9.278 9.284 0 5.128-4.153 9.285-9.278 9.285-5.125 0-9.28-4.157-9.28-9.285s4.155-9.284 9.28-9.284zm66.997-26.72c5.124 0 9.279 4.156 9.279 9.284 0 5.128-4.155 9.285-9.28 9.285-5.125 0-9.28-4.157-9.28-9.285s4.155-9.284 9.28-9.284zm-22.332 0c5.124 0 9.279 4.156 9.279 9.284 0 5.128-4.155 9.285-9.28 9.285-5.125 0-9.28-4.157-9.28-9.285s4.155-9.284 9.28-9.284zm-22.333 0c5.125 0 9.28 4.156 9.28 9.284 0 5.128-4.155 9.285-9.28 9.285-5.125 0-9.28-4.157-9.28-9.285s4.155-9.284 9.28-9.284zm-22.332 0c5.125 0 9.278 4.156 9.278 9.284 0 5.128-4.153 9.285-9.278 9.285-5.125 0-9.28-4.157-9.28-9.285s4.155-9.284 9.28-9.284zm66.997-26.72c5.124 0 9.279 4.157 9.279 9.284 0 5.128-4.155 9.285-9.28 9.285-5.125 0-9.28-4.157-9.28-9.285 0-5.127 4.155-9.284 9.28-9.284zm-22.332 0c5.124 0 9.279 4.157 9.279 9.284 0 5.128-4.155 9.285-9.28 9.285-5.125 0-9.28-4.157-9.28-9.285 0-5.127 4.155-9.284 9.28-9.284zm-22.333 0c5.125 0 9.28 4.157 9.28 9.284 0 5.128-4.155 9.285-9.28 9.285-5.125 0-9.28-4.157-9.28-9.285 0-5.127 4.155-9.284 9.28-9.284zm-22.332 0c5.125 0 9.278 4.157 9.278 9.284 0 5.128-4.153 9.285-9.278 9.285-5.125 0-9.28-4.157-9.28-9.285 0-5.127 4.155-9.284 9.28-9.284zm66.997-26.72c5.124 0 9.279 4.157 9.279 9.284 0 5.128-4.155 9.285-9.28 9.285-5.125 0-9.28-4.157-9.28-9.285 0-5.127 4.155-9.284 9.28-9.284zm-22.332 0c5.124 0 9.279 4.157 9.279 9.284 0 5.128-4.155 9.285-9.28 9.285-5.125 0-9.28-4.157-9.28-9.285 0-5.127 4.155-9.284 9.28-9.284zm-22.333 0c5.125 0 9.28 4.157 9.28 9.284 0 5.128-4.155 9.285-9.28 9.285-5.125 0-9.28-4.157-9.28-9.285 0-5.127 4.155-9.284 9.28-9.284zm-22.332 0c5.125 0 9.278 4.157 9.278 9.284 0 5.128-4.153 9.285-9.278 9.285-5.125 0-9.28-4.157-9.28-9.285 0-5.127 4.155-9.284 9.28-9.284zm66.997-26.72c5.124 0 9.279 4.157 9.279 9.284 0 5.128-4.155 9.285-9.28 9.285-5.125 0-9.28-4.157-9.28-9.285 0-5.127 4.155-9.284 9.28-9.284zm-22.332 0c5.124 0 9.279 4.157 9.279 9.284 0 5.128-4.155 9.285-9.28 9.285-5.125 0-9.28-4.157-9.28-9.285 0-5.127 4.155-9.284 9.28-9.284zm-22.333 0c5.125 0 9.28 4.157 9.28 9.284 0 5.128-4.155 9.285-9.28 9.285-5.125 0-9.28-4.157-9.28-9.285 0-5.127 4.155-9.284 9.28-9.284zm-22.332 0c5.125 0 9.278 4.157 9.278 9.284 0 5.128-4.153 9.285-9.278 9.285-5.125 0-9.28-4.157-9.28-9.285 0-5.127 4.155-9.284 9.28-9.284zM76.277.018c5.124 0 9.279 4.157 9.279 9.284 0 5.128-4.155 9.285-9.28 9.285-5.125 0-9.28-4.157-9.28-9.285 0-5.127 4.155-9.284 9.28-9.284zm-22.332 0c5.124 0 9.279 4.157 9.279 9.284 0 5.128-4.155 9.285-9.28 9.285-5.125 0-9.28-4.157-9.28-9.285 0-5.127 4.155-9.284 9.28-9.284zm-22.333 0c5.125 0 9.28 4.157 9.28 9.284 0 5.128-4.155 9.285-9.28 9.285-5.125 0-9.28-4.157-9.28-9.285 0-5.127 4.155-9.284 9.28-9.284zM9.28.018c5.125 0 9.278 4.157 9.278 9.284 0 5.128-4.153 9.285-9.278 9.285C4.155 18.587 0 14.43 0 9.302 0 4.175 4.155.018 9.28.018z" id="e"/></defs><g fill="none" fill-rule="evenodd"><g transform="translate(0 29)"><mask id="b" fill="#fff"><use xlink:href="#a"/></mask><use fill="#FFF" xlink:href="#a"/><g mask="url(#b)" fill="#FFF"><path d="M0 0h86v179H0z"/></g></g><g transform="translate(140)"><mask id="d" fill="#fff"><use xlink:href="#c"/></mask><use fill="#FFF" xlink:href="#c"/><g mask="url(#d)" fill="#FFF"><path d="M0 0h86v179H0z"/></g></g><g transform="rotate(90 186.5 279)"><mask id="f" fill="#fff"><use xlink:href="#e"/></mask><use fill="#FFF" xlink:href="#e"/><g mask="url(#f)" fill="#FFF"><path d="M0 0h86v179H0z"/></g></g></g></svg>
