<?xml version="1.0" encoding="UTF-8"?>
<svg width="48px" height="48px" viewBox="0 0 48 48" version="1.1" xmlns="http://www.w3.org/2000/svg" xmlns:xlink="http://www.w3.org/1999/xlink">
    <!-- Generator: Sketch 55.2 (78181) - https://sketchapp.com -->
    <title>Icon / Social / Pintrest Symbol</title>
    <desc>Created with Sketch.</desc>
    <defs>
        <path d="M11.851,17.3445 C10.363,17.3445 8.962,16.5405 8.4835,15.6255 C8.4835,15.6255 7.6825,18.8025 7.5145,19.416 C6.9175,21.582 5.161,23.7495 5.0245,23.9265 C4.93,24.051 4.72,24.012 4.6975,23.8485 C4.66,23.5725 4.2115,20.838 4.7395,18.609 C5.0035,17.49 6.5125,11.097 6.5125,11.097 C6.5125,11.097 6.073,10.2165 6.073,8.916 C6.073,6.873 7.2565,5.3475 8.731,5.3475 C9.985,5.3475 10.5895,6.2895 10.5895,7.4175 C10.5895,8.6775 9.787,10.563 9.373,12.309 C9.0265,13.7715 10.1065,14.964 11.5495,14.964 C14.1595,14.964 15.919,11.61 15.919,7.635 C15.919,4.614 13.885,2.352 10.183,2.352 C6.0025,2.352 3.3955,5.4705 3.3955,8.955 C3.3955,10.155 3.751,11.0025 4.306,11.658 C4.561,11.9595 4.597,12.081 4.504,12.426 C4.4365,12.681 4.2865,13.29 4.222,13.533 C4.1305,13.8825 3.8485,14.007 3.532,13.878 C1.6075,13.092 0.709,10.9815 0.709,8.6115 C0.709,4.695 4.012,0 10.561,0 C15.826,0 19.2895,3.807 19.2895,7.8975 C19.2895,13.305 16.282,17.3445 11.851,17.3445 L11.851,17.3445 Z" id="path-1"></path>
    </defs>
    <g id="Icon-/-Social-/-Pintrest-Symbol" stroke="none" stroke-width="1" fill="none" fill-rule="evenodd">
        <g id="↳🎨-Color" transform="translate(14.000000, 12.000000)">
            <mask id="mask-2" fill="white">
                <use xlink:href="#path-1"></use>
            </mask>
            <use id="Mask" fill="#333F48" xlink:href="#path-1"></use>
        </g>
    </g>
</svg>