<svg height="48" viewBox="0 0 48 48" width="48" xmlns="http://www.w3.org/2000/svg"><path d="M18.13 18.457V36h-5.788V18.457zm.38-5.427c0 1.685-1.256 3.032-3.274 3.032h-.037c-1.943 0-3.199-1.347-3.199-3.032 0-1.72 1.294-3.03 3.274-3.03s3.199 1.31 3.237 3.03zM39 25.941V36h-5.787v-9.386c0-2.357-.838-3.966-2.933-3.966-1.598 0-2.55 1.085-2.969 2.132-.153.375-.19.898-.19 1.423V36h-5.788s.076-15.897 0-17.543h5.787v2.485c.769-1.194 2.144-2.897 5.217-2.897 3.808 0 6.663 2.508 6.663 7.896z" fill="#fff" fill-rule="evenodd"/></svg>