<svg height="48" viewBox="0 0 48 48" width="48" xmlns="http://www.w3.org/2000/svg"><path d="M25.851 29.345c-1.488 0-2.889-.804-3.368-1.72 0 0-.8 3.177-.969 3.791-.597 2.166-2.353 4.333-2.49 4.51-.094.125-.304.086-.327-.077-.037-.276-.486-3.011.042-5.24l1.773-7.512s-.439-.88-.439-2.181c0-2.043 1.183-3.568 2.658-3.568 1.254 0 1.858.942 1.858 2.07 0 1.26-.802 3.145-1.216 4.891-.347 1.462.733 2.655 2.176 2.655 2.61 0 4.37-3.354 4.37-7.329 0-3.021-2.034-5.283-5.736-5.283-4.18 0-6.788 3.119-6.788 6.603 0 1.2.356 2.047.911 2.703.255.301.291.423.198.768-.068.255-.218.864-.282 1.107-.092.35-.374.474-.69.345-1.925-.786-2.823-2.897-2.823-5.267 0-3.916 3.303-8.611 9.852-8.611 5.265 0 8.728 3.807 8.728 7.897 0 5.408-3.007 9.447-7.438 9.447z" fill="#fff" fill-rule="evenodd"/></svg>