<svg width="48" height="48" viewBox="0 0 48 48" version="1.1" xmlns="http://www.w3.org/2000/svg" xmlns:xlink="http://www.w3.org/1999/xlink"><defs><path d="M6.13 8.457V26H.341V8.457H6.13zm.38-5.427c0 1.685-1.256 3.032-3.274 3.032h-.037C1.256 6.062 0 4.715 0 3.03 0 1.31 1.294 0 3.274 0s3.199 1.31 3.237 3.03zM27 15.941V26h-5.787v-9.386c0-2.357-.838-3.966-2.933-3.966-1.598 0-2.55 1.085-2.969 2.132-.153.375-.19.898-.19 1.423V26H9.332s.076-15.897 0-17.543h5.787v2.485c.769-1.194 2.144-2.897 5.217-2.897 3.808 0 6.663 2.508 6.663 7.896z" id="path-1"/></defs><g id="Icon-/-Social-/-Linkedin-Symbol" stroke="none" stroke-width="1" fill="none" fill-rule="evenodd"><g id="↳🎨-Color" transform="translate(12 10)"><g id="Icon"><mask id="mask-2" fill="#fff"><use xlink:href="#path-1"/></mask><use id="Mask" fill="#333F48" xlink:href="#path-1"/></g></g></g></svg>