<svg width="48" height="48" viewBox="0 0 48 48" version="1.1" xmlns="http://www.w3.org/2000/svg" xmlns:xlink="http://www.w3.org/1999/xlink"><defs><path d="M11.851 17.345c-1.488 0-2.889-.804-3.368-1.72 0 0-.8 3.177-.969 3.791-.596 2.166-2.353 4.334-2.49 4.51-.094.125-.304.086-.327-.077-.037-.276-.486-3.011.042-5.24l1.774-7.512s-.44-.88-.44-2.181c0-2.043 1.183-3.569 2.658-3.569 1.254 0 1.858.942 1.858 2.07 0 1.26-.802 3.146-1.216 4.892-.346 1.463.734 2.655 2.177 2.655 2.61 0 4.369-3.354 4.369-7.329 0-3.021-2.034-5.283-5.736-5.283-4.18 0-6.787 3.119-6.787 6.603 0 1.2.355 2.047.91 2.703.255.302.291.423.198.768-.067.255-.217.864-.282 1.107-.092.35-.374.474-.69.345C1.607 13.092.709 10.982.709 8.611.709 4.695 4.012 0 10.561 0c5.265 0 8.729 3.807 8.729 7.897 0 5.408-3.008 9.447-7.439 9.447z" id="path-1"/></defs><g id="Icon-/-Social-/-Pintrest-Symbol" stroke="none" stroke-width="1" fill="none" fill-rule="evenodd"><g id="↳🎨-Color" transform="translate(14 12)"><mask id="mask-2" fill="#fff"><use xlink:href="#path-1"/></mask><use id="Mask" fill="#333F48" xlink:href="#path-1"/></g></g></svg>