<svg width="48" height="48" viewBox="0 0 48 48" version="1.1" xmlns="http://www.w3.org/2000/svg" xmlns:xlink="http://www.w3.org/1999/xlink"><defs><path d="M22.738 5.595c.009.212.015.424.015.64 0 6.535-5.054 14.071-14.296 14.071a14.39 14.39 0 01-7.702-2.22c.393.044.793.067 1.199.067 2.354 0 4.52-.79 6.24-2.117-2.2-.04-4.055-1.469-4.695-3.434a5.147 5.147 0 002.27-.086c-2.299-.453-4.03-2.453-4.03-4.848v-.063a5.06 5.06 0 002.276.619A4.926 4.926 0 011.78 4.107c0-.907.248-1.756.681-2.487a14.342 14.342 0 0010.356 5.168 4.887 4.887 0 01-.13-1.127c0-2.732 2.25-4.947 5.024-4.947 1.446 0 2.752.601 3.667 1.563a10.151 10.151 0 003.191-1.2 4.985 4.985 0 01-2.208 2.737 10.207 10.207 0 002.885-.78 10.14 10.14 0 01-2.507 2.56z" id="path-1"/></defs><g id="Icon-/-Social-/-Twitter-Symbol" stroke="none" stroke-width="1" fill="none" fill-rule="evenodd"><g id="↳🎨-Color" transform="translate(11 13)" fill="#fff"><mask id="mask-2"><use xlink:href="#path-1"/></mask><use id="Mask" xlink:href="#path-1"/></g></g></svg>