<svg enable-background="new 0 0 512 512" height="512" viewBox="0 0 512 512" width="512" xmlns="http://www.w3.org/2000/svg"><g><path d="m424.813 96.969c-5.859 5.859-5.859 15.352 0 21.211 36.884 36.885 57.187 85.825 57.187 137.812s-20.303 100.928-57.188 137.813c-5.859 5.859-5.859 15.352 0 21.211s15.352 5.859 21.211 0c42.54-42.539 65.977-99.024 65.977-159.024s-23.438-116.484-65.977-159.023c-5.859-5.86-15.351-5.86-21.21 0z" fill="#333F48"/><path d="m361.209 351.412c5.859 5.859 15.352 5.859 21.211 0 25.532-25.547 39.58-59.429 39.58-95.42s-14.048-69.873-39.58-95.42c-5.859-5.859-15.352-5.859-21.211 0-5.859 5.845-5.859 15.352 0 21.211 19.849 19.864 30.791 46.231 30.791 74.209s-10.942 54.346-30.791 74.209c-5.859 5.86-5.859 15.367 0 21.211z" fill="#333F48"/><path d="m15 360.992h75v-210h-75c-8.291 0-15 6.709-15 15v180c0 8.291 6.709 15 15 15z" fill="#333F48"/><path d="m245.003 475.001c3.889 5.173 10.657 7.262 16.743 5.215 6.123-2.036 10.254-7.764 10.254-14.224v-420c0-6.46-4.131-12.188-10.254-14.224-6.108-2.021-12.861.073-16.743 5.215-29.097 38.758-86.163 97.409-125.003 111.025v215.969c38.84 13.616 95.906 72.266 125.003 111.024z" fill="#333F48"/><path d="m332 255.992c0-22.114-12.153-41.25-30-51.656v103.312c17.847-10.406 30-29.542 30-51.656z" fill="#333F48"/></g></svg>
