<?xml version="1.0" encoding="iso-8859-1"?>
<!-- Generator: Adobe Illustrator 16.0.0, SVG Export Plug-In . SVG Version: 6.00 Build 0)  -->
<!DOCTYPE svg PUBLIC "-//W3C//DTD SVG 1.1//EN" "http://www.w3.org/Graphics/SVG/1.1/DTD/svg11.dtd">
<svg xmlns="http://www.w3.org/2000/svg" xmlns:xlink="http://www.w3.org/1999/xlink" version="1.1" id="Capa_1" x="0px" y="0px" width="512px" height="512px" viewBox="0 0 29.936 29.936" style="enable-background:new 0 0 29.936 29.936;" xml:space="preserve">
<g>
	<g>
		<path d="M20.477,8.156l-4.004-4.001c0.151-0.244,0.242-0.527,0.242-0.834c-0.001-0.876-0.71-1.586-1.585-1.586    c-0.876,0-1.585,0.71-1.585,1.586c0,0.264,0.07,0.51,0.185,0.729L9.623,8.156H0V28.2h29.936V8.156H20.477z M14.141,4.55    c0.271,0.219,0.613,0.355,0.989,0.355c0.334,0,0.644-0.105,0.899-0.282l3.533,3.533h-9.028L14.141,4.55z M28.646,26.911H1.29    V9.446h27.356V26.911L28.646,26.911z" fill="#333F48"/>
		<rect x="22.632" y="24.152" width="5.191" height="1.86" fill="#333F48"/>
	</g>
</g>
<g>
</g>
<g>
</g>
<g>
</g>
<g>
</g>
<g>
</g>
<g>
</g>
<g>
</g>
<g>
</g>
<g>
</g>
<g>
</g>
<g>
</g>
<g>
</g>
<g>
</g>
<g>
</g>
<g>
</g>
</svg>
