<?xml version="1.0"?>
<svg xmlns="http://www.w3.org/2000/svg" id="Layer_1" height="512px" viewBox="0 0 128 128" width="512px" data-name="Layer 1"><path d="m118.795 16.628h-39.41a9.1 9.1 0 0 0 -8.919-7.342h-12.932a9.1 9.1 0 0 0 -8.919 7.342h-39.41a1.75 1.75 0 0 0 -1.75 1.75v8.5a1.75 1.75 0 0 0 1.75 1.75h4v68.95a1.75 1.75 0 0 0 1.75 1.75h47.295v6.338a6.644 6.644 0 1 0 3.5 0v-6.335h47.294a1.75 1.75 0 0 0 1.75-1.75v-68.95h4a1.75 1.75 0 0 0 1.75-1.75v-8.5a1.75 1.75 0 0 0 -1.749-1.753zm-51.651 95.443a3.144 3.144 0 1 1 -3.144-3.143 3.147 3.147 0 0 1 3.144 3.143zm-9.61-99.285h12.932a5.6 5.6 0 0 1 5.312 3.842h-23.555a5.6 5.6 0 0 1 5.311-3.842zm53.76 83.045h-94.588v-67.2h94.588zm5.751-70.7h-106.09v-5h106.09z" fill="#333F48"/><path d="m23.907 20.88h-6.946a1.75 1.75 0 0 0 0 3.5h6.946a1.75 1.75 0 0 0 0-3.5z" fill="#333F48"/></svg>
