<svg xmlns="http://www.w3.org/2000/svg" version="1.1" id="Capa_1" x="0" y="0" width="512" height="512" viewBox="0 0 279.623 279.623" xml:space="preserve"><g fill="#333F48"><path d="M0 213.943h279.623V36.258H0v177.685zM14.337 50.596h250.949v149.011H14.337V50.596zm206.934 192.768a7.167 7.167 0 007.169-7.168 7.168 7.168 0 00-7.169-7.169H57.486a7.167 7.167 0 00-7.168 7.169 7.168 7.168 0 007.168 7.168h163.785z"/><path d="M215.853 111.538c-19.173-.004-38.336 0-57.504 0h-2.375v38.064h14.412v-28.469h13.856v28.474h14.29v-28.469h13.708v28.464h14.515v-27.167c-.01-6.957-3.94-10.897-10.902-10.897zm-76.882 0c-14.309-.004-28.619 0-42.928 0h-2.455v9.525h41.544v19.126h-27.193v-12.97H93.534v22.537H95.9c14.309 0 28.616.005 42.925 0 6.812-.005 10.982-4.121 11.024-10.897.037-5.51.019-11.015 0-16.526-.017-6.608-4.241-10.795-10.878-10.795zm-67.007 15.4H45.949v-15.285H31.087v37.997h14.888v-13.469h26.049v13.408h15.049v-37.955H71.964v15.304zm161.04 22.674h14.729v-37.93h-14.729v37.93z"/></g></svg>