<svg xmlns="http://www.w3.org/2000/svg" id="Bold" height="512" viewBox="0 0 24 24" width="512"><circle cx="12" cy="3" r="3" fill="#333F48"/><path d="M7 9.97V10H4.75a.752.752 0 00-.726.939L7.03 22.5H3.75a.75.75 0 000 1.5h16.5a.75.75 0 000-1.5h-3.28l3.006-11.561A.75.75 0 0019.25 10H17v-.03C17 8.333 15.722 7 14.15 7h-4.3C8.278 7 7 8.333 7 9.97zm1.154 3.324A.751.751 0 018.75 13h6.5a.751.751 0 01.725.945l-1.75 6.5A.752.752 0 0113.5 21h-3a.752.752 0 01-.725-.555l-1.75-6.5a.755.755 0 01.129-.651z" fill="#333F48"/></svg>