<svg height="512" viewBox="0 0 512 512" width="512" xmlns="http://www.w3.org/2000/svg"><g fill="#333F48"><path d="M424.813 96.969c-5.859 5.859-5.859 15.352 0 21.211C461.697 155.065 482 204.005 482 255.992s-20.303 100.928-57.188 137.813c-5.859 5.859-5.859 15.352 0 21.211s15.352 5.859 21.211 0C488.563 372.477 512 315.992 512 255.992s-23.438-116.484-65.977-159.023c-5.859-5.86-15.351-5.86-21.21 0z"/><path d="M361.209 351.412c5.859 5.859 15.352 5.859 21.211 0 25.532-25.547 39.58-59.429 39.58-95.42s-14.048-69.873-39.58-95.42c-5.859-5.859-15.352-5.859-21.211 0-5.859 5.845-5.859 15.352 0 21.211C381.058 201.647 392 228.014 392 255.992s-10.942 54.346-30.791 74.209c-5.859 5.86-5.859 15.367 0 21.211zM15 360.992h75v-210H15c-8.291 0-15 6.709-15 15v180c0 8.291 6.709 15 15 15zm230.003 114.009c3.889 5.173 10.657 7.262 16.743 5.215A14.984 14.984 0 00272 465.992v-420c0-6.46-4.131-12.188-10.254-14.224-6.108-2.021-12.861.073-16.743 5.215C215.906 75.741 158.84 134.392 120 148.008v215.969c38.84 13.616 95.906 72.266 125.003 111.024zM332 255.992c0-22.114-12.153-41.25-30-51.656v103.312c17.847-10.406 30-29.542 30-51.656z"/></g></svg>