<svg xmlns="http://www.w3.org/2000/svg" version="1.1" id="Capa_1" x="0" y="0" width="512" height="512" viewBox="0 0 50.001 50.001" xml:space="preserve"><g fill="#333F48"><circle cx="38.001" cy="22.483" r="5"/><path d="M44.361 14.828c-1.732-1.443-3.932-2.344-6.36-2.344-2.41 0-4.591.887-6.315 2.307H5.999c-3.3 0-5.999 2.701-5.999 6v8c0 3.299 2.699 6 5.999 6v1.728c0 .55.45 1 1 1h3.308c.549 0 1-.45 1-1V34.79h27.386v1.728c0 .55.451 1 1 1h3.309c.55 0 1-.45 1-1V34.79c3.3 0 5.999-2.701 5.999-6v-8c-.001-3.175-2.508-5.771-5.64-5.962zM7.012 28.79c0 .551-.762 1-1.692 1-.926 0-1.689-.449-1.689-1v-8c0-.55.764-1 1.689-1 .931 0 1.692.45 1.692 1v8zm5.327 0c0 .551-.757 1-1.688 1-.928 0-1.689-.449-1.689-1v-8c0-.55.762-1 1.689-1 .932 0 1.688.45 1.688 1v8zm5.331 0c0 .551-.764 1-1.689 1-.931 0-1.692-.449-1.692-1v-8c0-.55.762-1 1.692-1 .926 0 1.689.45 1.689 1v8zm20.331.693a7.003 7.003 0 01-7.001-7 7.002 7.002 0 0114.002 0c0 3.866-3.136 7-7.001 7z"/></g></svg>