<?xml version="1.0" encoding="UTF-8"?>
<svg width="224px" height="102px" viewBox="0 0 224 102" version="1.1" xmlns="http://www.w3.org/2000/svg" xmlns:xlink="http://www.w3.org/1999/xlink">
    <!-- Generator: Sketch 52.3 (67297) - http://www.bohemiancoding.com/sketch -->
    <title>Group</title>
    <desc>Created with Sketch.</desc>
    <g id="Symbols" stroke="none" stroke-width="1" fill="none" fill-rule="evenodd">
        <g id="RTP/Logo/Symbol/Color" transform="translate(0.000000, -1.000000)">
            <g id="Group" transform="translate(0.000000, 1.000000)">
                <path d="M216.91618,93.9523949 L216.91618,96.3554322 L218.5,96.3554322 C218.91764,96.3104556 220.215537,96.3393692 220.215537,95.1153621 C220.215537,93.9652453 219.058995,93.9523949 218.641355,93.9523949 L216.91618,93.9523949 Z M218.776285,93.3580607 C219.418808,93.3580607 220.992991,93.515479 220.992991,95.0768107 C220.992991,95.7096963 220.703855,96.2847547 219.836449,96.6124416 C220.572138,96.8308995 220.819509,97.2935164 220.864486,98.0516939 C220.948014,99.2628505 220.948014,99.3881425 221.076519,99.6515771 L220.302278,99.6515771 C220.199474,99.4813084 220.170561,99.0636682 220.112734,98.1994743 C220.07097,97.4926986 219.984229,96.9337033 218.471086,96.9337033 L216.91618,96.9337033 L216.91618,99.6515771 L216.138727,99.6515771 L216.138727,93.3580607 L218.776285,93.3580607 Z M218.5,91.6168224 C215.717874,91.6168224 213.658586,93.8367407 213.658586,96.5 C213.658586,99.2210864 215.791764,101.383178 218.5,101.383178 C221.17611,101.383178 223.32535,99.2467874 223.32535,96.5 C223.32535,93.8495911 221.294977,91.6168224 218.51285,91.6168224 L218.5,91.6168224 Z M218.525701,91 C221.625876,91 224,93.4769276 224,96.5 C224,99.5969626 221.535923,102 218.5,102 C215.428738,102 213,99.6130257 213,96.5 C213,93.5026285 215.351636,91 218.51285,91 L218.525701,91 Z" id="Fill-38" fill="#231F20"></path>
                <polygon id="Fill-1" fill="#559FD2" points="7 76.5026838 106 77 28.4830336 64.5166921 68.3652189 0"></polygon>
                <polygon id="Fill-2" fill="#00529A" points="50 52.125558 78.4141059 6 205 100 82.2284834 22.5388708"></polygon>
                <polygon id="Fill-3" fill="#E21836" points="0 87.0262991 141.548366 87.0262991 98.8691051 46 183 99"></polygon>
            </g>
        </g>
    </g>
</svg>