<svg width="48" height="48" viewBox="0 0 48 48" version="1.1" xmlns="http://www.w3.org/2000/svg" xmlns:xlink="http://www.w3.org/1999/xlink"><defs><path d="M24 21.153A2.85 2.85 0 0 1 21.147 24H2.853A2.85 2.85 0 0 1 0 21.153V2.846A2.85 2.85 0 0 1 2.853 0h18.294A2.848 2.848 0 0 1 24 2.845v18.308zm-4.45-8.89c0 4.011-3.271 7.276-7.293 7.276-4.02 0-7.291-3.265-7.291-7.275 0-.666.09-1.311.259-1.924H2.982v10.424c0 .37.3.67.67.67h17.21a.67.67 0 0 0 .67-.67V10.34H19.29c.17.613.26 1.258.26 1.924zm-1.985-4.71h3.241c.37 0 .671-.3.671-.668V3.65a.67.67 0 0 0-.67-.668h-3.242a.67.67 0 0 0-.67.668v3.235a.67.67 0 0 0 .67.668zm-5.308 9.31a4.605 4.605 0 0 0 4.61-4.6 4.604 4.604 0 0 0-4.61-4.598 4.604 4.604 0 0 0-4.61 4.598c0 2.541 2.065 4.6 4.61 4.6z" id="path-1"/></defs><g id="Icon-/-Social-/-Instagram-Symbol" stroke="none" stroke-width="1" fill="none" fill-rule="evenodd"><g id="↳🎨-Color" transform="translate(12 12)" fill="#fff"><mask id="mask-2"><use xlink:href="#path-1"/></mask><use id="Mask" xlink:href="#path-1"/></g></g></svg>