<?xml version="1.0" encoding="UTF-8"?>
<svg width="48px" height="48px" viewBox="0 0 48 48" version="1.1" xmlns="http://www.w3.org/2000/svg" xmlns:xlink="http://www.w3.org/1999/xlink">
    <!-- Generator: Sketch 55.2 (78181) - https://sketchapp.com -->
    <title>Icon / Social / Linkedin Symbol</title>
    <desc>Created with Sketch.</desc>
    <defs>
        <path d="M6.12935053,8.4568171 L6.12935053,25.9995343 L0.342208106,25.9995343 L0.342208106,8.4568171 L6.12935053,8.4568171 Z M6.51050633,3.03014697 C6.51050633,4.71457104 5.25377856,6.06238973 3.23589489,6.06238973 L3.19891191,6.06238973 C1.25603435,6.06238973 0,4.71457104 0,3.03014697 C0,1.31009467 1.29428861,0 3.27403358,0 C5.25377856,0 6.4729455,1.31009467 6.51050633,3.03014697 Z M27,15.9410764 L26.9997689,25.9995343 L21.2128576,25.9995343 L21.2128576,16.6141707 C21.2128576,14.2567687 20.3754243,12.648142 18.2804542,12.648142 C16.6816339,12.648142 15.7293223,13.7325912 15.3110679,14.7800149 C15.1580509,15.1553922 15.12049,15.6784054 15.12049,16.2026994 L15.12049,26 L9.33265417,26 C9.33265417,26 9.40893156,10.1034007 9.33265417,8.45728283 L15.12049,8.45728283 L15.12049,10.9420616 C15.8885802,9.74758403 17.2642314,8.04488012 20.3368233,8.04488012 C24.1450298,8.04488012 27,10.5527124 27,15.9410764 Z" id="path-1"></path>
    </defs>
    <g id="Icon-/-Social-/-Linkedin-Symbol" stroke="none" stroke-width="1" fill="none" fill-rule="evenodd">
        <g id="↳🎨-Color" transform="translate(12.000000, 10.000000)">
            <g id="Icon">
                <mask id="mask-2" fill="white">
                    <use xlink:href="#path-1"></use>
                </mask>
                <use id="Mask" fill="#fff" xlink:href="#path-1"></use>
            </g>
        </g>
    </g>
</svg>
