<?xml version="1.0"?>
<svg xmlns="http://www.w3.org/2000/svg" id="Bold" enable-background="new 0 0 24 24" height="512px" viewBox="0 0 24 24" width="512px"><circle cx="12" cy="3" r="3" fill="#333F48"/><path d="m7 9.97v.03h-2.25c-.232 0-.451.107-.594.291-.142.184-.19.423-.132.648l3.006 11.561h-3.28c-.414 0-.75.336-.75.75s.336.75.75.75h4.25 8 4.25c.414 0 .75-.336.75-.75s-.336-.75-.75-.75h-3.28l3.006-11.561c.059-.225.01-.464-.132-.648-.143-.184-.362-.291-.594-.291h-2.25v-.03c0-1.637-1.278-2.97-2.85-2.97h-4.3c-1.572 0-2.85 1.333-2.85 2.97zm1.154 3.324c.143-.186.363-.294.596-.294h6.5c.233 0 .453.108.596.294.142.185.189.426.129.651l-1.75 6.5c-.089.327-.386.555-.725.555h-3c-.339 0-.636-.228-.725-.555l-1.75-6.5c-.06-.225-.012-.466.129-.651z" fill="#333F48"/></svg>
