<?xml version="1.0"?>
<svg xmlns="http://www.w3.org/2000/svg" height="512px" viewBox="0 0 64 64" width="512px"><g id="Sofa-8" data-name="Sofa"><path d="m6.279 47 1.333-4h-1.612v4z" fill="#333F48"/><path d="m58 47v-4h-1.613l1.334 4z" fill="#333F48"/><path d="m5.9 17.058-1.795 17.942h7.895v-11a7.01 7.01 0 0 0 -6.1-6.942z" fill="#333F48"/><path d="m4 37h56v4h-56z" fill="#333F48"/><path d="m17 27a3 3 0 0 0 -3 3v5h36v-5a3 3 0 0 0 -3-3z" fill="#333F48"/><path d="m52 35h7.9l-1.8-17.942a7.01 7.01 0 0 0 -6.1 6.942z" fill="#333F48"/><path d="m14 24v2.026a4.948 4.948 0 0 1 3-1.026h30a4.948 4.948 0 0 1 3 1.026v-2.026a8.983 8.983 0 0 1 3.356-7h-42.712a8.983 8.983 0 0 1 3.356 7z" fill="#333F48"/></g></svg>
