<svg enable-background="new 0 0 64 64" height="512" viewBox="0 0 64 64" width="512" xmlns="http://www.w3.org/2000/svg"><path fill="#333F48" d="m62 27c1.102 0 2-.897 2-2v-3c0-.553-.447-1-1-1h-1v-16c0-1.102-.898-2-2-2h-22c-1.103 0-2 .898-2 2v16h-1c-.553 0-1 .447-1 1v3c0 1.103.897 2 2 2h12v4h-12.142c-.447-1.721-1.999-3-3.858-3s-3.411 1.279-3.858 3h-12.142v-4h12c1.102 0 2-.897 2-2v-3c0-.553-.447-1-1-1h-1v-16c0-1.102-.898-2-2-2h-22c-1.103 0-2 .898-2 2v16h-1c-.553 0-1 .447-1 1v3c0 1.103.897 2 2 2h12v4h-13c-.553 0-1 .447-1 1s.447 1 1 1h13v4h-10c-1.103 0-2 .897-2 2v16h-1c-.553 0-1 .447-1 1v3c0 1.103.897 2 2 2h26c1.102 0 2-.897 2-2v-3c0-.553-.447-1-1-1h-1v-16c0-1.103-.898-2-2-2h-10v-4h12.142c.447 1.721 1.999 3 3.858 3s3.411-1.279 3.858-3h12.142v4h-10c-1.103 0-2 .897-2 2v16h-1c-.553 0-1 .447-1 1v3c0 1.103.897 2 2 2h26c1.102 0 2-.897 2-2v-3c0-.553-.447-1-1-1h-1v-16c0-1.103-.898-2-2-2h-10v-4h13c.553 0 1-.447 1-1s-.447-1-1-1h-13v-4zm-58-22h22v16h-6v-1c0-1.723-.876-3.245-2.207-4.145.743-.727 1.207-1.736 1.207-2.855 0-2.206-1.794-4-4-4s-4 1.794-4 4c0 1.119.464 2.128 1.206 2.855-1.33.9-2.206 2.422-2.206 4.145v1h-6zm8 16v-1c0-1.654 1.346-3 3-3s3 1.346 3 3v1zm1-8c0-1.102.897-2 2-2 1.102 0 2 .898 2 2s-.898 2-2 2c-1.103 0-2-.898-2-2zm-11 10h26.001l.001 2h-26.002zm26.002 36h-26.002v-2h26.001zm-13.002-8c1.654 0 3 1.346 3 3v1h-6v-1c0-1.654 1.346-3 3-3zm-2-4c0-1.103.897-2 2-2 1.102 0 2 .897 2 2s-.898 2-2 2c-1.103 0-2-.897-2-2zm13 8h-6v-1c0-1.723-.876-3.245-2.207-4.145.743-.726 1.207-1.736 1.207-2.855 0-2.206-1.794-4-4-4s-4 1.794-4 4c0 1.119.464 2.129 1.206 2.855-1.33.9-2.206 2.422-2.206 4.145v1h-6v-16h22zm6-21c-1.103 0-2-.897-2-2s.897-2 2-2c1.102 0 2 .897 2 2s-.898 2-2 2zm30.002 25h-26.002v-2h26.001zm-13.002-8c1.654 0 3 1.346 3 3v1h-6v-1c0-1.654 1.346-3 3-3zm-2-4c0-1.103.897-2 2-2 1.102 0 2 .897 2 2s-.898 2-2 2c-1.103 0-2-.897-2-2zm13 8h-6v-1c0-1.723-.876-3.245-2.207-4.145.743-.726 1.207-1.736 1.207-2.855 0-2.206-1.794-4-4-4s-4 1.794-4 4c0 1.119.464 2.129 1.206 2.855-1.33.9-2.206 2.422-2.206 4.145v1h-6v-16h22zm-22-50h22v16h-6v-1c0-1.723-.876-3.245-2.207-4.145.743-.727 1.207-1.736 1.207-2.855 0-2.206-1.794-4-4-4s-4 1.794-4 4c0 1.119.464 2.128 1.206 2.855-1.33.9-2.206 2.422-2.206 4.145v1h-6zm8 16v-1c0-1.654 1.346-3 3-3s3 1.346 3 3v1zm1-8c0-1.102.897-2 2-2 1.102 0 2 .898 2 2s-.898 2-2 2c-1.103 0-2-.898-2-2zm-11 10h26.001l.001 2h-26.002z"/></svg>
