<?xml version="1.0" encoding="iso-8859-1"?>
<!-- Generator: Adobe Illustrator 19.0.0, SVG Export Plug-In . SVG Version: 6.00 Build 0)  -->
<svg xmlns="http://www.w3.org/2000/svg" xmlns:xlink="http://www.w3.org/1999/xlink" version="1.1" id="Capa_1" x="0px" y="0px" viewBox="0 0 409.6 409.6" style="enable-background:new 0 0 409.6 409.6;" xml:space="preserve" width="512px" height="512px">
<g>
	<g>
		<path d="M170.665,0h-153.6C7.685,0,0,7.685,0,17.065v375.47c0,9.38,7.685,17.065,17.065,17.065h153.6    c9.385,0,17.07-7.685,17.07-17.065V17.065C187.735,7.685,180.05,0,170.665,0z" fill="#333F48"/>
	</g>
</g>
<g>
	<g>
		<path d="M392.535,0h-153.6c-9.385,0-17.07,7.685-17.07,17.065v153.6c0,9.385,7.685,17.07,17.07,17.07h153.6    c9.38,0,17.065-7.685,17.065-17.07v-153.6C409.6,7.685,401.915,0,392.535,0z" fill="#333F48"/>
	</g>
</g>
<g>
	<g>
		<path d="M392.535,221.865h-153.6c-9.385,0-17.07,7.685-17.07,17.07v153.6c0,9.38,7.685,17.065,17.07,17.065h153.6    c9.38,0,17.065-7.685,17.065-17.065v-153.6C409.6,229.55,401.915,221.865,392.535,221.865z" fill="#333F48"/>
	</g>
</g>
<g>
</g>
<g>
</g>
<g>
</g>
<g>
</g>
<g>
</g>
<g>
</g>
<g>
</g>
<g>
</g>
<g>
</g>
<g>
</g>
<g>
</g>
<g>
</g>
<g>
</g>
<g>
</g>
<g>
</g>
</svg>
