<?xml version="1.0"?>
<svg xmlns="http://www.w3.org/2000/svg" id="Capa_1" enable-background="new 0 0 47.5 47.5" height="512px" viewBox="0 0 47.5 47.5" width="512px"><g><g><g><path d="m44.159 3.341c-2.227-2.226-5.146-3.341-8.066-3.341-2.919 0-5.838 1.114-8.064 3.341-4.454 4.454-4.454 11.677 0 16.131 2.227 2.227 5.146 3.341 8.064 3.341s5.839-1.114 8.066-3.341c4.454-4.453 4.454-11.676 0-16.131z" fill="#333F48"/><path d="m22.161 14.999-21.515 24.162c-.9 1.011-.854 2.604.103 3.562l1.132 1.133-.723.724c-.477.477-.477 1.256 0 1.731l.108.108c.477.478 1.256.478 1.733 0l.723-.724 1.055 1.055c.957.957 2.552 1.003 3.563.104l24.155-21.509c-2.469-.633-4.739-1.902-6.589-3.752-1.887-1.887-3.127-4.177-3.745-6.594zm-1.141 14.269-5.145 5.146c-.77.771-2.018.771-2.787 0s-.77-2.02 0-2.787l5.145-5.146c.77-.771 2.018-.771 2.787 0 .769.77.77 2.018 0 2.787z" fill="#333F48"/></g></g></g></svg>
