<svg xmlns="http://www.w3.org/2000/svg" width="81.996" height="50.965" viewBox="0 0 81.996 50.965"><path fill="#fff" d="M78.838 13.111L60.3 8.547a4.44 4.44 0 00-1.93 0l-12.512 3.081-2.994-8.224c-.339-.978-2.181-3.611-4.66-3.391L19.28 2.095a4.485 4.485 0 00-1.811.664L1.609 13.435l-.067.051C-.907 15.593.291 18.948.3 18.978l8.059 21.876a4.72 4.72 0 004.4 3.29l17.791-1.479a6.458 6.458 0 004.512-1.653l1.652-1.178v1.352a4.72 4.72 0 003.018 4.607l17.2 4.725a6.744 6.744 0 004.907-.028v-.013c.6-.152 3.354-.908 17.1-4.684a4.722 4.722 0 003.018-4.607L82 17.878a4.979 4.979 0 00-3.162-4.767zm-60.33-8.806a2.674 2.674 0 01.975-.358l19.367-2.13-14.76 10.51a5.772 5.772 0 01-3.69 1.351L2.348 15.185zM30.4 40.807l-17.777 1.477c-.888.11-2.092-.928-2.514-2.074L2.052 18.338c-.148-.4-.494-1.925.674-2.032L20.5 14.829a3.059 3.059 0 012.555 2.06l8.013 21.889c.645 1.912-.644 2.027-.668 2.029zm7.022-3.762l-3.437 2.449c-1.146.713-1.826-1.115-1.826-1.115l-8.02-21.887a3.074 3.074 0 01.568-3.177l14.578-10.39c1-.65 1.684.725 1.826 1.115l3.172 8.71-4.3 1.06a4.261 4.261 0 00-2.6 4.068zm21.339 10c0 1.847-1.093 1.76-1.331 1.675l-17.2-4.725a2.964 2.964 0 01-1.647-2.812l-.045-23.305c0-1.954 1.242-1.7 1.332-1.674l17.2 4.724c1.7.576 1.692 2.808 1.692 2.813v23.304zm-1.395-27.237L39.9 15.012l18.92-4.656a2.552 2.552 0 011.038 0l18.913 4.657-12.715 3.488-4.746 1.3a5.284 5.284 0 01-3.944.007zm22.722 21.375a2.963 2.963 0 01-1.648 2.812l-17.2 4.726c-.794.2-1.323-.6-1.323-1.685v-23.3a3.037 3.037 0 011.683-2.812L78.8 16.2c.995-.274 1.289.927 1.287 1.674v23.309zM20.33 9.01c-1.243.455-2.34.578-2.452.275s.806-.918 2.049-1.373 2.341-.578 2.452-.275-.806.917-2.049 1.373zm6.819 26.415c.428 1.163.01 2.168-.934 2.246a2.809 2.809 0 01-2.484-1.961c-.427-1.161-.009-2.167.935-2.245a2.809 2.809 0 012.483 1.96zm8.628-4.127a2.808 2.808 0 01-.63 3.1c-.771.549-1.74.052-2.164-1.111a2.807 2.807 0 01.63-3.1c.772-.55 1.741-.052 2.164 1.111zm20.451 11.251c0 1.238-.736 2.038-1.65 1.787a2.8 2.8 0 01-1.657-2.7c0-1.237.736-2.037 1.65-1.787a2.811 2.811 0 011.657 2.7zM30.295 16.241a2.809 2.809 0 01-.631 3.1c-.771.549-1.741.052-2.163-1.111a2.807 2.807 0 01.63-3.1c.769-.552 1.74-.052 2.164 1.111zm7.193-5.125a2.81 2.81 0 01.63-3.1c.772-.549 1.741-.052 2.164 1.11a2.811 2.811 0 01-.631 3.1c-.772.552-1.74.052-2.164-1.11zM9.391 21.405c.428 1.161.01 2.166-.934 2.244a2.81 2.81 0 01-2.484-1.961c-.427-1.161-.009-2.167.936-2.245a2.807 2.807 0 012.482 1.962zm62.285 10.6a2.807 2.807 0 01-1.658 2.7c-.913.252-1.651-.549-1.649-1.788a2.807 2.807 0 011.657-2.694c.914-.254 1.651.544 1.65 1.782zm-22.2-17.19c0 .323-1.073.584-2.4.584s-2.4-.261-2.4-.584 1.073-.585 2.4-.585 2.403.263 2.403.586zM61.3 11.878c0 .324-1.073.585-2.4.585s-2.4-.261-2.4-.585 1.073-.585 2.4-.585 2.4.264 2.4.585zm0 6.145c0 .324-1.073.585-2.4.585s-2.4-.262-2.4-.585 1.073-.585 2.4-.585 2.4.265 2.4.586zm16.3 4.345a2.807 2.807 0 01-1.658 2.7c-.913.252-1.652-.549-1.649-1.786a2.807 2.807 0 011.657-2.7c.916-.25 1.65.549 1.65 1.787zm-24.71 3.25c0-1.238.736-2.038 1.65-1.788a2.8 2.8 0 011.657 2.7c0 1.236-.736 2.037-1.649 1.786a2.808 2.808 0 01-1.658-2.698zm12.86 16.023a2.808 2.808 0 01-1.658 2.7c-.913.252-1.651-.549-1.65-1.787a2.809 2.809 0 011.658-2.699c.913-.25 1.651.549 1.65 1.786zM44.4 39.302c0 1.239-.736 2.038-1.649 1.788a2.806 2.806 0 01-1.658-2.7c0-1.238.736-2.037 1.65-1.787a2.809 2.809 0 011.657 2.699zm23.873-24.486c0-.324 1.073-.585 2.4-.585s2.4.262 2.4.585-1.074.584-2.4.584-2.4-.261-2.4-.584zM50.3 32.914c0 1.239-.736 2.038-1.649 1.788a2.806 2.806 0 01-1.658-2.7c0-1.238.736-2.037 1.65-1.787a2.807 2.807 0 011.657 2.699zm-9.233-10.545c0-1.238.736-2.037 1.65-1.787a2.808 2.808 0 011.657 2.7c0 1.236-.736 2.037-1.649 1.786a2.806 2.806 0 01-1.658-2.699z"/></svg>