<svg xmlns="http://www.w3.org/2000/svg" width="39.089" height="40.075" viewBox="0 0 39.089 40.075"><defs><style>.d{fill:#040505}</style></defs><path d="M39.089 40.074H0V.001h39.089zM1.26 38.814h36.569V1.261H1.26z" fill="#a1a4a6"/><path fill="#fff" d="M1.287 1.4h36.304v37.293H1.287z"/><g transform="translate(4.168 5.426)"><ellipse class="d" cx="3.216" cy="5.106" rx="3.216" ry="5.106" transform="rotate(-18.412 9.403 -16.507)"/><ellipse class="d" cx="5.1" cy="3.22" rx="5.1" ry="3.22" transform="rotate(-66.941 14.63 -6.7)"/><ellipse class="d" cx="2.794" cy="4.117" rx="2.794" ry="4.117" transform="rotate(-48.32 14.546 6.525)"/><ellipse class="d" cx="4.172" cy="2.845" rx="4.172" ry="2.845" transform="rotate(-46.53 26.161 -17.571)"/><path class="d" d="M29.358 22.579a5.928 5.928 0 00-4.493-5.061l.277.065a6.473 6.473 0 01-4.746-2.867 11.538 11.538 0 00-1.682-2.355 4.065 4.065 0 00-2.031-.85 6.1 6.1 0 00-3.468.358 4.948 4.948 0 00-2.572 2.6c-.279.669-.412 1.409-.7 2.075-.8 1.872-2.628 2.849-3.779 4.466a7.119 7.119 0 00-1.261 4.285 2.711 2.711 0 00.244 1.178 2.309 2.309 0 00.8.816 5.791 5.791 0 005.076.713c2.109-.714 3.974-2.673 6.165-2.444a9.789 9.789 0 012.281.729 10.547 10.547 0 008.435-.516 2.9 2.9 0 001.006-.749 3.269 3.269 0 00.448-2.443z"/></g></svg>