<svg xmlns="http://www.w3.org/2000/svg" width="22" height="22" viewBox="0 0 22 22"><path fill="#384048" d="M3.18 2.249c.485 0 .855.246 1.124.425l.092.061 2.869 2.752a2.38 2.38 0 01.85 1.797c0 .662-.245 1.29-.672 1.727l-.886.95c.32.59 1.027 1.746 2.17 2.886a15.185 15.185 0 003.19 2.426l1.316-1.204c.363-.35.83-.543 1.316-.543.488 0 .955.193 1.318.544l3.338 3.067c.344.26.55.667.55 1.112 0 .432-.194.828-.52 1.089l-.017.016c-1.206 1.11-2.793 2.386-4.37 2.386-2.038 0-5.263-.514-9.724-4.966C1.435 13.094-.05 10.124.316 7.15.46 5.647 1.375 3.817 1.777 3.125c.226-.513.77-.876 1.404-.876zM9.17.167c6.983 0 12.664 5.682 12.664 12.666a.622.622 0 01-1.244 0c0-6.298-5.123-11.422-11.42-11.422a.622.622 0 110-1.244zm.638 3.18c2.39 0 4.632.913 6.313 2.571a8.75 8.75 0 012.62 6.278.622.622 0 11-1.244 0 7.516 7.516 0 00-2.25-5.392A7.693 7.693 0 009.809 4.59a.622.622 0 010-1.244zm.675 3.336a4.946 4.946 0 014.94 4.94.622.622 0 01-1.245 0 3.7 3.7 0 00-3.695-3.696.622.622 0 110-1.244z" fill-rule="evenodd"/></svg>