<svg xmlns="http://www.w3.org/2000/svg" width="40" height="39.997" viewBox="0 0 40 39.997"><defs><clipPath id="a"><path fill="none" d="M0 0h40v39.995H0z"/></clipPath><style/></defs><path d="M39.999 39.997h-40v-40h40zm-38.71-1.259H38.71V1.258H1.289z" fill="#a4a7a9"/><path d="M30.357 25.393V9.37a.445.445 0 00-.011-.057v-.057c0-.019-.015-.025-.019-.04a.44.44 0 00-.044-.1.369.369 0 00-.048-.073.418.418 0 00-.077-.071.532.532 0 00-.071-.048.38.38 0 00-.1-.036.472.472 0 00-.094-.021c-.015 0-.027-.008-.044-.008a.545.545 0 00-.057.013.509.509 0 00-.057 0l-15.279 3.539c-.015 0-.025.015-.04.019a.459.459 0 00-.092.042.526.526 0 00-.08.052.424.424 0 00-.065.071.536.536 0 00-.055.08 1.147 1.147 0 00-.034.088.408.408 0 00-.019.1.309.309 0 00-.01.042v13.59a3.439 3.439 0 101.016 2.437V16.853l14.262-3.3v9.407a3.441 3.441 0 101.014 2.437z" fill="#030504"/></svg>