<svg xmlns="http://www.w3.org/2000/svg" viewBox="0 0 48.99 44.091"><path fill="#99abaf" d="M44.907 0H8.981A4.087 4.087 0 004.9 4.082V16.4A5.716 5.716 0 000 22.05v21.229a.817.817 0 00.816.817h9.8a.817.817 0 00.816-.817v-3.357a5.74 5.74 0 01.6-2.556l1.243-2.485a5.739 5.739 0 00.6-2.556v-.647a4.078 4.078 0 01.057-.645h15.612a2.422 2.422 0 00-.15.817v7.348a.816.816 0 00.117.42L31.96 43.7a.817.817 0 00.7.4h12.247a.816.816 0 00.759-.513L47.3 39.5a.825.825 0 00.058-.3v-7.357a2.435 2.435 0 00-.425-1.376 4.068 4.068 0 002.058-3.523V4.082A4.087 4.087 0 0044.907 0zM6.532 4.082a2.449 2.449 0 012.449-2.449h30.21v26.278a2.293 2.293 0 00-1.633 0v-4.233a2.45 2.45 0 10-4.9 0v5.715H14.347l1.2-4.465a2.451 2.451 0 10-4.736-1.268l-.941 3.511a.817.817 0 01-.789.6.8.8 0 01-.682-.392L6.536 24.27zm5.715 27.589v.647a4.112 4.112 0 01-.431 1.826l-1.243 2.485a7.389 7.389 0 00-.776 3.286v2.54H1.633v-20.41a4.089 4.089 0 013.266-4v6.45a.816.816 0 00.117.42L7 28.221a2.424 2.424 0 002.064 1.185 2.458 2.458 0 002.383-1.806l.941-3.511a.817.817 0 111.588.38c0 .014-.007.028-.011.043L12.443 30.2a5.7 5.7 0 00-.196 1.472zm33.476.171v7.192l-1.369 3.423H33.122l-2.1-3.492v-7.122a.817.817 0 111.633 0v4.9h1.633V23.678a.817.817 0 111.633 0v9.8h1.633V30.21a.817.817 0 111.633 0v3.266h1.633v-2.449a.817.817 0 011.633 0v2.449h1.633v-1.633a.817.817 0 111.633 0zm1.633-4.9a2.449 2.449 0 01-2.449 2.449h-1.453a2.383 2.383 0 00-2.629-.666V1.633h4.082a2.449 2.449 0 012.449 2.449z"/><path fill="#99abaf" d="M44.091 13.064a2.449 2.449 0 102.449 2.449 2.449 2.449 0 00-2.449-2.449zm0 3.266a.816.816 0 11.817-.817.817.817 0 01-.817.817zM13.88 18.779h.179l.507 2.029a1.633 1.633 0 001.585 1.237h13.422a1.633 1.633 0 001.584-1.237l.507-2.029h.18a2.45 2.45 0 100-4.9h-.99a8.972 8.972 0 00-5.81-4.625 2.419 2.419 0 00.268-1.091 2.45 2.45 0 00-4.9 0 2.419 2.419 0 00.268 1.091 8.972 8.972 0 00-5.81 4.625h-.99a2.45 2.45 0 100 4.9zm15.692 1.633H16.151l-.408-1.633h14.238zM22.045 8.165a.816.816 0 11.816.816.817.817 0 01-.816-.817zm.816 2.45a7.333 7.333 0 016.091 3.266H16.771a7.332 7.332 0 016.091-3.266zm-8.981 4.9h17.963a.817.817 0 110 1.633H13.88a.817.817 0 010-1.633z"/></svg>