<svg xmlns="http://www.w3.org/2000/svg" width="81.996" height="50.965" viewBox="0 0 81.996 50.965"><path fill="#fff" d="M78.838,32.033,60.3,27.469a4.44,4.44,0,0,0-1.93,0L45.858,30.55l-2.994-8.224c-.339-.978-2.181-3.611-4.66-3.391L19.28,21.017a4.485,4.485,0,0,0-1.811.664L1.609,32.357l-.067.051C-.907,34.515.291,37.87.3,37.9L8.359,59.776a4.72,4.72,0,0,0,4.4,3.29L30.55,61.587a6.458,6.458,0,0,0,4.512-1.653l1.652-1.178,0,1.352a4.72,4.72,0,0,0,3.018,4.607l17.2,4.725a6.744,6.744,0,0,0,4.907-.028l0-.013c.6-.152,3.354-.908,17.1-4.684a4.722,4.722,0,0,0,3.018-4.607L82,36.8A4.979,4.979,0,0,0,78.838,32.033Zm-60.33-8.806a2.674,2.674,0,0,1,.975-.358l19.367-2.13-14.76,10.51A5.772,5.772,0,0,1,20.4,32.6L2.348,34.107ZM30.4,59.729,12.623,61.206c-.888.11-2.092-.928-2.514-2.074L2.052,37.26c-.148-.4-.494-1.925.674-2.032L20.5,33.751a3.059,3.059,0,0,1,2.555,2.06L31.068,57.7v0C31.713,59.612,30.424,59.727,30.4,59.729Zm7.022-3.762-3.437,2.449c-1.146.713-1.826-1.115-1.826-1.115L24.139,35.414l0,0a3.074,3.074,0,0,1,.568-3.177l14.578-10.39c1-.65,1.684.725,1.826,1.115l3.172,8.71-4.3,1.06A4.261,4.261,0,0,0,37.383,36.8Zm21.339,10c0,1.847-1.093,1.76-1.331,1.675l-17.2-4.725a2.964,2.964,0,0,1-1.647-2.812L38.538,36.8c0-1.954,1.242-1.7,1.332-1.674l17.2,4.724c1.7.576,1.692,2.808,1.692,2.813V65.967ZM57.366,38.73,39.9,33.934l18.92-4.656a2.552,2.552,0,0,1,1.038,0l18.913,4.657L66.056,37.423l-4.746,1.3A5.284,5.284,0,0,1,57.366,38.73ZM80.088,60.105a2.963,2.963,0,0,1-1.648,2.812l-17.2,4.726c-.794.2-1.323-.6-1.323-1.685v-23.3A3.037,3.037,0,0,1,61.6,39.846l17.2-4.724c.995-.274,1.289.927,1.287,1.674V60.105ZM20.33,27.932c-1.243.455-2.34.578-2.452.275s.806-.918,2.049-1.373,2.341-.578,2.452-.275S21.573,27.476,20.33,27.932Zm6.819,26.415c.428,1.163.01,2.168-.934,2.246a2.809,2.809,0,0,1-2.484-1.961c-.427-1.161-.009-2.167.935-2.245A2.809,2.809,0,0,1,27.149,54.347Zm8.628-4.127a2.808,2.808,0,0,1-.63,3.1c-.771.549-1.74.052-2.164-1.111a2.807,2.807,0,0,1,.63-3.1C34.385,48.559,35.354,49.057,35.777,50.22ZM56.228,61.471c0,1.238-.736,2.038-1.65,1.787a2.8,2.8,0,0,1-1.657-2.7c0-1.237.736-2.037,1.65-1.787A2.811,2.811,0,0,1,56.228,61.471ZM30.295,35.163a2.809,2.809,0,0,1-.631,3.1c-.771.549-1.741.052-2.163-1.111a2.807,2.807,0,0,1,.63-3.1C28.9,33.5,29.871,34,30.295,35.163Zm7.193-5.125a2.81,2.81,0,0,1,.63-3.1c.772-.549,1.741-.052,2.164,1.11a2.811,2.811,0,0,1-.631,3.1C38.879,31.7,37.911,31.2,37.487,30.038ZM9.391,40.327c.428,1.161.01,2.166-.934,2.244A2.81,2.81,0,0,1,5.973,40.61c-.427-1.161-.009-2.167.936-2.245A2.807,2.807,0,0,1,9.391,40.327Zm62.285,10.6a2.807,2.807,0,0,1-1.658,2.7c-.913.252-1.651-.549-1.649-1.788a2.807,2.807,0,0,1,1.657-2.694C70.94,48.891,71.677,49.689,71.676,50.927Zm-22.2-17.19c0,.323-1.073.584-2.4.584s-2.4-.261-2.4-.584,1.073-.585,2.4-.585S49.479,33.415,49.479,33.738ZM61.3,30.8c0,.324-1.073.585-2.4.585s-2.4-.261-2.4-.585,1.073-.585,2.4-.585S61.3,30.479,61.3,30.8Zm0,6.145c0,.324-1.073.585-2.4.585s-2.4-.262-2.4-.585,1.073-.585,2.4-.585S61.3,36.625,61.3,36.946Zm16.3,4.345a2.807,2.807,0,0,1-1.658,2.7c-.913.252-1.652-.549-1.649-1.786a2.807,2.807,0,0,1,1.657-2.7C76.866,39.254,77.6,40.053,77.6,41.291ZM52.89,44.54c0-1.238.736-2.038,1.65-1.788a2.8,2.8,0,0,1,1.657,2.7c0,1.236-.736,2.037-1.649,1.786A2.808,2.808,0,0,1,52.89,44.54ZM65.75,60.563a2.808,2.808,0,0,1-1.658,2.7c-.913.252-1.651-.549-1.65-1.787A2.809,2.809,0,0,1,64.1,58.777C65.013,58.527,65.751,59.326,65.75,60.563ZM44.4,58.224c0,1.239-.736,2.038-1.649,1.788a2.806,2.806,0,0,1-1.658-2.7c0-1.238.736-2.037,1.65-1.787A2.809,2.809,0,0,1,44.4,58.224ZM68.273,33.738c0-.324,1.073-.585,2.4-.585s2.4.262,2.4.585-1.074.584-2.4.584S68.273,34.061,68.273,33.738ZM50.3,51.836c0,1.239-.736,2.038-1.649,1.788a2.806,2.806,0,0,1-1.658-2.7c0-1.238.736-2.037,1.65-1.787A2.807,2.807,0,0,1,50.3,51.836ZM41.067,41.291c0-1.238.736-2.037,1.65-1.787a2.808,2.808,0,0,1,1.657,2.7c0,1.236-.736,2.037-1.649,1.786A2.806,2.806,0,0,1,41.067,41.291Z" transform="translate(0 -18.922)"/></svg>
