<svg xmlns="http://www.w3.org/2000/svg" xmlns:xlink="http://www.w3.org/1999/xlink" width="40" height="39.997" viewBox="0 0 40 39.997"><defs><style>.a{fill:none;}.b{mix-blend-mode:multiply;isolation:isolate;}.c{fill:#a4a7a9;}.d{clip-path:url(#a);}.e{fill:#030504;}</style><clipPath id="a"><rect class="a" width="40" height="39.995"/></clipPath></defs><g class="b" transform="translate(0 0.001)"><g transform="translate(0 0)"><path class="c" d="M251.483,88.023h-40v-40h40Zm-38.71-1.259h37.421V49.284H212.773Z" transform="translate(-211.484 -48.027)"/></g></g><path class="e" d="M239.57,71.253V55.23a.445.445,0,0,0-.011-.057c0-.019,0-.038,0-.057s-.015-.025-.019-.04a.44.44,0,0,0-.044-.1.369.369,0,0,0-.048-.073.418.418,0,0,0-.077-.071.532.532,0,0,0-.071-.048.38.38,0,0,0-.1-.036.472.472,0,0,0-.094-.021c-.015,0-.027-.008-.044-.008a.545.545,0,0,0-.057.013.509.509,0,0,0-.057,0l-15.279,3.539c-.015,0-.025.015-.04.019a.459.459,0,0,0-.092.042.526.526,0,0,0-.08.052.424.424,0,0,0-.065.071.536.536,0,0,0-.055.08c-.013.029-.023.057-.034.088a.408.408,0,0,0-.019.1.309.309,0,0,0-.01.042V72.355a3.439,3.439,0,1,0,1.016,2.437V62.713l14.262-3.3v9.407a3.441,3.441,0,1,0,1.014,2.437Z" transform="translate(-209.213 -45.86)"/></svg>
