<svg xmlns="http://www.w3.org/2000/svg" width="39.017" height="40"><defs><clipPath id="a"><path class="a" d="M0 0h39.017v40H0z"/></clipPath><clipPath id="b"><path class="a" d="M0 0h22.664v22.665H0z"/></clipPath><clipPath id="c"><path class="a" d="M0 0h1.258v21.81H0z"/></clipPath></defs><g clip-path="url(#a)"><path d="M39.016 40H0V0h39.016zM1.258 38.742h36.5V1.258h-36.5z" fill="#a4a7a9"/></g><path class="e" d="M10.599 21.926l3.262 3.262 3.262-3.262.019-1.62-2.715 2.715v-7.67h-1.132v7.67l-2.684-2.685zM27.653 18.386l-3.262-3.262-3.262 3.262-.019 1.62 2.715-2.715v7.669h1.132v-7.67l2.684 2.685z"/><g clip-path="url(#b)" transform="translate(8.176 8.823)"><path class="g" d="M19.626 22.659H3.039a3.043 3.043 0 01-3.04-3.039V3.049A3.052 3.052 0 013.048 0h16.587a3.031 3.031 0 013.028 3.028v16.6a3.04 3.04 0 01-3.037 3.031zM3.05 1.259A1.792 1.792 0 001.259 3.05v16.575a1.784 1.784 0 001.782 1.782h16.585a1.782 1.782 0 001.78-1.78v-16.6a1.772 1.772 0 00-1.771-1.769z"/></g><g clip-path="url(#c)" transform="translate(18.384 9.166)"><path class="g" d="M0 0h1.258v21.809H0z"/></g></svg>