<svg xmlns="http://www.w3.org/2000/svg" width="39.089" height="40.075" viewBox="0 0 39.089 40.075"><defs><style>.a{mix-blend-mode:multiply;isolation:isolate;}.b{fill:#a1a4a6;}.c{fill:#fff;}.d{fill:#040505;}</style></defs><g transform="translate(-212.251 -84.005)"><g transform="translate(212.25 84.005)"><g class="a"><path class="b" d="M250.573,88.1H211.484V48.027h39.089ZM212.744,86.84h36.569V49.287H212.744Z" transform="translate(-211.483 -48.026)"/></g><g transform="translate(1.288 1.4)"><rect class="c" width="36.304" height="37.293"/></g><g transform="translate(4.169 5.426)"><ellipse class="d" cx="3.216" cy="5.106" rx="3.216" ry="5.106" transform="translate(5.695 2.125) rotate(-18.412)"/><ellipse class="d" cx="5.1" cy="3.22" rx="5.1" ry="3.22" transform="translate(15.064 9.386) rotate(-66.941)"/><ellipse class="d" cx="2.794" cy="4.117" rx="2.794" ry="4.117" transform="translate(0 13.05) rotate(-48.32)"/><ellipse class="d" cx="4.172" cy="2.845" rx="4.172" ry="2.845" transform="matrix(0.688, -0.726, 0.726, 0.688, 20.919, 13.511)"/><path class="d" d="M241.721,104.481a5.928,5.928,0,0,0-4.493-5.061l.277.065a6.473,6.473,0,0,1-4.746-2.867,11.538,11.538,0,0,0-1.682-2.355,4.065,4.065,0,0,0-2.031-.85,6.1,6.1,0,0,0-3.468.358,4.948,4.948,0,0,0-2.572,2.6c-.279.669-.412,1.409-.7,2.075-.8,1.872-2.628,2.849-3.779,4.466a7.119,7.119,0,0,0-1.261,4.285,2.711,2.711,0,0,0,.244,1.178,2.309,2.309,0,0,0,.8.816,5.791,5.791,0,0,0,5.076.713c2.109-.714,3.974-2.673,6.165-2.444a9.789,9.789,0,0,1,2.281.729,10.547,10.547,0,0,0,8.435-.516,2.9,2.9,0,0,0,1.006-.749A3.269,3.269,0,0,0,241.721,104.481Z" transform="translate(-212.363 -81.902)"/></g></g></g></svg>