<svg xmlns="http://www.w3.org/2000/svg" width="39.016" height="40"><defs><clipPath id="a"><path fill="none" d="M0 0h39.016v40H0z"/></clipPath></defs><g clip-path="url(#a)"><path d="M39.017 39.999H0v-40h39.017zm-37.766-1.25h36.516v-37.5H1.251z" fill="#a4a7a9"/></g><path class="e" d="M27.702 19.21a1.886 1.886 0 001.887-1.885 1.887 1.887 0 00-1.887-1.887 1.886 1.886 0 00-1.885 1.887 1.885 1.885 0 001.885 1.885zM35.158 30.582l-.31-4.093-1.9-1.142h-3.092l-.955-4.872a.729.729 0 00-.856-.576.729.729 0 00-.577.856l.286 1.458a6.377 6.377 0 00-3.136 4.338 5.432 5.432 0 001.019 4.383A6.709 6.709 0 0030.9 33.2c.174 0 .349-.005.524-.016a.73.73 0 00.683-.775.729.729 0 00-.775-.683 5.455 5.455 0 01-4.552-1.7 3.97 3.97 0 01-.725-3.207 4.845 4.845 0 012.005-3.062l.6 3.049h3.889l.911.545.253 3.34a.73.73 0 00.727.675h.057a.73.73 0 00.661-.784zM18.678 33.267a.73.73 0 01-.73-.723l-.068-7.047h1.824l.941-.855-1.23-9.039h-2.258l-1.676 7.66a.73.73 0 01-.869.558.732.732 0 01-.558-.87l1.754-8.018a.97.97 0 01.948-.791h3.935l1.505 11.064-1.927 1.752h-.913l.054 5.571a.73.73 0 01-.723.738zM20.242 10.96a2.117 2.117 0 01-2.118 2.115 2.118 2.118 0 01-2.116-2.118 2.119 2.119 0 012.12-2.116 2.117 2.117 0 012.115 2.12"/><g><path class="e" d="M7.754 32.652h-.011a.731.731 0 01-.723-.739l.059-5.628-2.145-1.577V14.192h5.157a.957.957 0 01.942.815l.008.052.03 8.329a.731.731 0 01-.728.733.73.73 0 01-.73-.728l-.028-7.739H6.397v8.315l2.152 1.583-.067 6.378a.732.732 0 01-.728.722zM9.902 11.164a2.117 2.117 0 01-2.117 2.117 2.117 2.117 0 01-2.117-2.117 2.118 2.118 0 012.117-2.117 2.118 2.118 0 012.117 2.117"/></g></svg>