<?xml version="1.0" encoding="UTF-8"?>
<svg width="48px" height="48px" viewBox="0 0 48 48" version="1.1" xmlns="http://www.w3.org/2000/svg" xmlns:xlink="http://www.w3.org/1999/xlink">
    <!-- Generator: Sketch 55.2 (78181) - https://sketchapp.com -->
    <title>Icon / Social / Instagram Symbol</title>
    <desc>Created with Sketch.</desc>
    <defs>
        <path d="M24,21.153 C24,22.725 22.7235,24 21.147,24 L2.853,24 C1.278,24 0,22.725 0,21.153 L0,2.8455 C0,1.2735 1.278,0 2.853,0 L21.147,0 C22.7235,0 24,1.2735 24,2.8455 L24,21.153 Z M19.5490843,12.2636399 C19.5490843,16.2743199 16.2785149,19.5388965 12.2573475,19.5388965 C8.23618015,19.5388965 4.96561072,16.2743199 4.96561072,12.2636399 C4.96561072,11.5984394 5.05550269,10.9527154 5.22479922,10.3399518 L2.98199463,10.3399518 L2.98199463,20.7644237 C2.98199463,21.134479 3.28163452,21.4341189 3.65168979,21.4341189 L20.861507,21.4341189 C21.2330605,21.4341189 21.5327004,21.134479 21.5327004,20.7644237 L21.5327004,10.3399518 L19.2898958,10.3399518 C19.4591923,10.9527154 19.5490843,11.5984394 19.5490843,12.2636399 Z M17.5654682,7.55300119 L20.8060736,7.55300119 C21.1761289,7.55300119 21.477267,7.2533613 21.477267,6.88480423 L21.477267,3.65019159 C21.477267,3.28163452 21.1761289,2.98199463 20.8060736,2.98199463 L17.5654682,2.98199463 C17.1954129,2.98199463 16.8942748,3.28163452 16.8942748,3.65019159 L16.8942748,6.88480423 C16.8942748,7.2533613 17.1954129,7.55300119 17.5654682,7.55300119 Z M12.2571977,16.862513 C14.8026386,16.862513 16.8671574,14.803987 16.8671574,12.2630407 C16.8671574,9.72359257 14.8026386,7.66506651 12.2571977,7.66506651 C9.7117568,7.66506651 7.64723794,9.72359257 7.64723794,12.2630407 C7.64723794,14.803987 9.7117568,16.862513 12.2571977,16.862513 Z" id="path-1"></path>
    </defs>
    <g id="Icon-/-Social-/-Instagram-Symbol" stroke="none" stroke-width="1" fill="none" fill-rule="evenodd">
        <g id="↳🎨-Color" transform="translate(12.000000, 12.000000)">
            <mask id="mask-2" fill="white">
                <use xlink:href="#path-1"></use>
            </mask>
            <use id="Mask" fill="#333F48" xlink:href="#path-1"></use>
        </g>
    </g>
</svg>
