<svg xmlns="http://www.w3.org/2000/svg" width="23" height="17" viewBox="0 0 23 17"><path fill="#384048" d="M22.158 1.625l.005.02a.18.18 0 0 1 .026.093V1.9l-.02 13.012c0 1.095-.73 1.826-1.826 1.826H2.08c-1.095 0-1.826-.73-1.826-1.826L.234 1.846v-.162c0-.011.003-.021.005-.032L1.5 2.63l.004.003.003.003 8.4 6.392.014.01.014.01c.4.285.937.386 1.276.386.365 0 .94-.14 1.29-.397l.009-.006.008-.007 8.306-6.389zm-1.2-.958c.129.003.337.016.524.096l-1.322 1-8.31 6.392c-.112.083-.44.182-.638.182s-.49-.076-.64-.182l-8.4-6.392L.92.795c.14-.07.31-.128.429-.128z" fill-rule="evenodd"/></svg>