<svg xmlns="http://www.w3.org/2000/svg" width="26" height="20" viewBox="0 0 26 20">
  <path fill="#000000" d="M7.09107412,6.25610237 L7.17030472,6.28916065 L10.0015235,7.81015788 C10.6626818,8.16173339 11.0109397,8.90034412 10.8745407,9.62511848 L10.8407479,9.7697701 L10.5681163,10.6848116 L14.1763158,9.29295568 C14.30759,9.24215233 14.4473961,9.21597508 14.5883657,9.21616898 C15.1756417,9.21653096 15.6588671,9.66113545 15.7203717,10.2319972 L15.7269806,10.3561413 L15.7269806,10.9359197 L16.9815512,13.029133 L19.4910803,17.2095485 L23.288144,17.4808227 C24.6477806,17.5822742 25.7127349,18.6714206 25.7998732,20.0148621 L25.8056233,20.1840637 L25.8056233,22.4504349 C25.8043181,23.8461839 24.7165954,24.9873598 23.3426503,25.0742845 L23.1764543,25.0796039 L16.6406648,25.0796039 C16.5911542,25.0796039 16.5422468,25.0712444 16.4958962,25.0550425 L16.4285318,25.0249224 L0.616481994,16.2609612 C0.433410654,16.1596697 0.350697731,15.9464399 0.407963184,15.7531223 L0.441191136,15.6718753 L1.74132963,13.2242022 C1.74385044,13.2195485 1.74617726,13.2150887 1.74889197,13.2106288 C1.85425553,13.0270485 2.07244804,12.9485772 2.26590357,13.0126267 L2.34689751,13.0489113 L2.43454294,13.0997147 L6.58742381,6.44952078 C6.69278742,6.27425417 6.90236928,6.19830671 7.09107412,6.25610237 Z M11.3450969,24.2033435 C11.5870914,24.2033435 11.7831302,24.3993822 11.7831302,24.6413767 C11.7831302,24.8833712 11.5870914,25.0796039 11.3450969,25.0796039 L11.3450969,25.0796039 L0.828227147,25.0796039 C0.586232687,25.0796039 0.39,24.8833712 0.39,24.6413767 C0.39,24.3993822 0.586232687,24.2033435 0.828227147,24.2033435 L0.828227147,24.2033435 L11.3450969,24.2033435 Z M2.30191136,14.0370554 L1.41634348,15.7021246 L16.7533241,24.2033435 L23.1764543,24.2033435 C24.0960332,24.2033435 24.8502372,23.4949435 24.9233586,22.5941835 L24.929169,22.4504349 L17.0416621,22.4504349 C16.9903417,22.4505642 16.9397107,22.4416445 16.8918949,22.4243079 L16.8225485,22.3920692 L2.30191136,14.0370554 Z M0.828227147,21.5739806 L6.52479227,21.5739806 C6.76678673,21.5739806 6.96301937,21.7702133 6.96301937,22.0122078 C6.96301937,22.227314 6.80797136,22.4062627 6.6035558,22.4433734 L6.52479227,22.4504349 L0.828227147,22.4504349 C0.586232687,22.4504349 0.39,22.2542022 0.39,22.0122078 C0.39,21.7971016 0.545048049,21.6181528 0.749463615,21.5810421 L0.828227147,21.5739806 L6.52479227,21.5739806 L0.828227147,21.5739806 Z M5.78911357,9.46165376 L5.22504156,10.3472216 L6.71811636,11.4573324 C7.64119927,12.1442609 8.14534904,13.2516684 8.06615686,14.3899531 L8.04443215,14.6036482 L7.97346259,16.2857812 L8.65096954,16.6757257 L11.0645152,14.6639529 C11.2506648,14.5092161 11.5271745,14.5344238 11.6821053,14.7205734 C11.8175,14.8834543 11.8151247,15.1153687 11.6877096,15.2745938 L11.6254848,15.3379695 L9.46072023,17.1420693 L10.8874792,17.9624848 L12.8257618,16.411626 C13.0146261,16.2603795 13.290554,16.2910166 13.4418006,16.4798809 C13.5741413,16.6453068 13.5672273,16.8772424 13.4369067,17.0339649 L13.3735457,17.0961135 L11.7034349,18.4321247 L13.368698,19.3917645 L14.5377562,18.1998255 C14.7062604,18.0328726 14.9769529,18.0301579 15.1485596,18.1938144 C15.3019391,18.3398982 15.3261591,18.5706037 15.2179721,18.7432988 L15.1634903,18.8133435 L14.1530471,19.8435651 L17.1585873,21.5739806 L24.929169,21.5739806 L24.929169,20.1840637 C24.9256787,19.2736453 24.2591272,18.5111539 23.3741749,18.3730703 L23.2247368,18.3559197 L19.2868975,18.0745623 L18.0552078,18.4852549 C17.9034626,18.5362798 17.7383261,18.4996909 17.622929,18.3947817 L17.5696676,18.336723 L13.18759,12.639964 C13.0577943,12.4674121 13.0714101,12.2354765 13.2064841,12.0827624 L13.2717451,12.0225679 L14.8493629,10.8395485 L14.8493629,10.3574986 C14.8499446,10.2698532 14.8070914,10.187831 14.7349585,10.138385 C14.6810042,10.1017368 14.6163608,10.0865758 14.5531354,10.0943745 L14.490831,10.1098809 L10.0519391,11.8218753 C10.0013297,11.8414599 9.94742381,11.851349 9.89332407,11.8511551 C9.88498616,11.8511551 9.87839334,11.8490222 9.86792245,11.8480526 C9.85725762,11.847277 9.84814403,11.8437867 9.83767314,11.8437867 C9.79785781,11.8396501 9.75890428,11.8299979 9.72190417,11.8151174 L9.66800554,11.7889114 L5.78911357,9.46165376 Z M3.01916899,18.9448116 C3.26116345,18.9448116 3.45739613,19.1410443 3.45739613,19.3830388 C3.45739613,19.598145 3.30234809,19.7770937 3.09793252,19.8142045 L3.01916899,19.8212659 L0.828227147,19.8212659 C0.586232687,19.8212659 0.39,19.6250332 0.39,19.3830388 C0.39,19.1679326 0.545048049,18.9889839 0.749463615,18.9518731 L0.828227147,18.9448116 L3.01916899,18.9448116 Z M15.1617452,11.699133 L14.1538227,12.4559474 L18.0747923,17.5539252 L18.5752632,17.3869723 L15.1617452,11.699133 Z M4.75365651,11.0904626 L4.52930749,11.4410444 L3.20144046,13.5383297 L7.11775623,15.7955873 L7.17243765,14.5291884 C7.29496031,13.6814838 6.97678758,12.8346239 6.33726252,12.2775857 L6.19534627,12.1627618 L4.75365651,11.0904626 Z M7.12376733,7.25888368 L6.2496399,8.71589197 L7.12066483,9.23866205 L9.63601109,10.7470554 L9.99803327,9.52700001 C10.0889557,9.19158171 9.95983187,8.83982882 9.68416761,8.64122873 L9.58695293,8.58093352 L7.12376733,7.25888368 Z" transform="translate(-.313 -5.338)"/>
</svg>
