<svg xmlns="http://www.w3.org/2000/svg" width="22" height="13" viewBox="0 0 22 13">
  <path fill="#010002" d="M21.6003234,9.60587446 L21.6003234,21.7301255 L0.716112916,21.7301255 L0.716112916,9.60587446 L21.6003234,9.60587446 Z M6.18380379,16.7806096 C5.72018386,16.7806096 5.3684115,16.8881554 5.12946441,17.1032469 C4.89051732,17.3178169 4.77078305,17.5879849 4.77078305,17.912773 C4.77078305,18.2688472 4.89318967,18.5305418 5.13741628,18.6979873 C5.26138719,18.7838563 5.47370923,18.8642183 5.77508017,18.9391554 L5.93318961,18.9761723 L6.32576417,19.0625348 C6.55571653,19.1118103 6.72361825,19.1684511 6.8295997,19.2325874 C6.93505971,19.2982881 6.98805043,19.390973 6.9887674,19.5091429 C6.9887674,19.7141968 6.88063504,19.8545929 6.66450068,19.9298098 C6.55056737,19.9695039 6.40274086,19.9891229 6.21997827,19.9891229 C5.91480907,19.9891229 5.6996524,19.9144275 5.57411718,19.7650366 C5.53592215,19.7194764 5.50470129,19.6606195 5.48032426,19.5891179 C5.44480157,19.4836579 5.27364089,19.3930587 5.0739317,19.3930587 C4.87422251,19.3930587 4.70091091,19.5864455 4.7772358,19.8057737 C4.84293647,19.9944024 4.95791265,20.1533094 5.12268577,20.2831464 C5.3960475,20.4988245 5.77167546,20.6068917 6.24956964,20.6068917 C6.71683961,20.6068917 7.07871475,20.4977165 7.33512988,20.2783883 C7.59154501,20.0590602 7.71975257,19.784069 7.71975257,19.452437 C7.71975257,19.1292132 7.61162021,18.8823142 7.39548586,18.7117401 C7.28400328,18.6239828 7.12813626,18.5501582 6.92728408,18.4904999 L6.76820085,18.448416 L6.1313345,18.2985038 C5.88547841,18.2412764 5.72494194,18.1914794 5.64920367,18.1485915 C5.53155514,18.0845203 5.47276347,17.9881202 5.47276347,17.8582832 C5.47276347,17.7173657 5.53259801,17.607669 5.65181084,17.5287369 C5.7715451,17.4498049 5.93097352,17.410567 6.13126932,17.410567 C6.31090331,17.410567 6.46140217,17.440745 6.58270074,17.5016876 C6.67597223,17.5488121 6.74695242,17.6124271 6.79570649,17.692402 C6.8788752,17.8285614 7.0383688,17.9668718 7.23970747,17.9668718 C7.44104614,17.9668718 7.60842643,17.773485 7.5284515,17.5557211 C7.45851418,17.3650067 7.34034422,17.207664 7.1740068,17.084736 C6.90064507,16.881833 6.57109883,16.7806096 6.18380379,16.7806096 Z M17.2331189,16.8875666 L15.4126627,16.8875666 C15.2064066,16.8875666 15.0348613,17.0361965 14.9992865,17.2321929 L14.9925173,17.3077141 L14.9925173,20.0956257 C14.9925173,20.3018818 15.1411453,20.4734272 15.3371415,20.509002 L15.4126627,20.5157711 L17.3215671,20.5157711 C17.5536052,20.5157711 17.7417125,20.3695741 17.7417125,20.1894187 C17.7417125,20.0317827 17.5976928,19.9001461 17.4062405,19.8697 L17.3215671,19.8630662 L16.1532944,19.8630662 C15.9470383,19.8630662 15.775493,19.7144382 15.7399182,19.518442 L15.733149,19.4429208 L15.733149,19.3501708 C15.733149,19.1439147 15.881777,18.9723694 16.0777732,18.9367946 L16.1532944,18.9300254 L17.075711,18.9300254 C17.3077491,18.9300254 17.4958564,18.7885865 17.4958564,18.6148186 C17.4958564,18.4622584 17.3518367,18.3352984 17.1603844,18.3059422 L17.075711,18.2995466 L16.1532944,18.2995466 C15.9212563,18.2995466 15.733149,18.1268216 15.733149,17.9144025 C15.733149,17.7285357 15.8771686,17.5730598 16.068621,17.537095 L16.1532944,17.5292584 L17.2330537,17.5292584 C17.4650918,17.5292584 17.653199,17.3856685 17.653199,17.2081854 C17.653199,17.0307024 17.4650918,16.8871125 17.2331189,16.8875666 Z M12.2702412,16.8870473 C12.087112,16.8870473 11.9344235,17.031067 11.8991128,17.2225193 L11.8914194,17.3071927 L11.8914194,20.0951043 C11.8914194,20.3013604 12.0400474,20.4729057 12.2360436,20.5084805 L12.3115648,20.5152497 L14.0409004,20.5152497 C14.2729385,20.5152497 14.4610458,20.3690527 14.4610458,20.1888972 C14.4610458,20.0312612 14.3170261,19.8996246 14.1255738,19.8691786 L14.0409004,19.8625448 L14.0409004,19.863001 L13.0692083,19.863001 C12.8629522,19.863001 12.6914069,19.7143731 12.6558321,19.5183769 L12.6490629,19.4428557 L12.6490629,17.3071927 C12.6490629,17.0751546 12.4795317,16.8870473 12.2702412,16.8870473 Z M9.72609993,16.8871125 L9.70863189,16.8871125 C9.50559856,16.8871125 9.28754447,17.0225988 9.18402367,17.2027044 L9.14704756,17.2823594 L8.13455325,20.1189599 C8.05666406,20.3377666 8.17111881,20.5147283 8.38992551,20.5147283 C8.60873222,20.5147283 8.84135693,20.3478042 8.90914334,20.1417075 C8.96851348,19.9613728 9.1621223,19.8110298 9.36504424,19.7762617 L9.45221676,19.7686867 L9.94810042,19.7686867 C10.1801385,19.7686867 10.421758,19.9356107 10.4879801,20.1417075 C10.5542022,20.3478042 10.791585,20.5147283 11.018865,20.5147283 C11.2204281,20.5147283 11.3387164,20.3749067 11.3081764,20.1901603 L11.2896195,20.1189599 L10.28612,17.2828808 C10.2087522,17.0645956 9.95813802,16.8871125 9.72609993,16.8871125 Z M9.81272063,18.0507751 L9.8379475,18.1162626 L10.0392862,18.744069 C10.1019162,18.9404758 10.0058758,19.1037683 9.82079249,19.1376308 L9.74734836,19.144074 L9.65831352,19.144074 C9.4519995,19.144074 9.32695192,19.0030165 9.35311875,18.8168968 L9.3701561,18.7451771 L9.57781716,18.1152197 C9.64230115,17.9192764 9.74159891,17.897917 9.81272063,18.0507751 Z M11.1619334,10.7274788 C10.643237,10.7274788 10.2468821,10.8683963 9.97299889,11.150818 C9.60584423,11.4834928 9.42197359,11.9825703 9.42145216,12.6475289 C9.42145216,13.2991909 9.6053228,13.7977469 9.97299889,14.1442397 C10.2469472,14.4266614 10.643237,14.5675789 11.1619334,14.5675789 C11.6806298,14.5675789 12.0769847,14.4266614 12.3508679,14.1442397 C12.7169797,13.7977469 12.8997423,13.2991909 12.8997423,12.6475289 C12.8997423,11.9826354 12.7169797,11.4840794 12.3508679,11.150818 C12.0769196,10.8683963 11.6806298,10.7274788 11.1619334,10.7274788 Z M15.2303564,10.8376969 L13.9153652,10.8376969 C13.7091091,10.8376969 13.5375638,10.9863249 13.501989,11.1823211 L13.4952198,11.2578423 L13.4944377,11.2578423 L13.4944377,14.0457539 C13.4944377,14.277792 13.6602537,14.4658993 13.8647861,14.4658993 C14.043752,14.4658993 14.1930756,14.3218796 14.2276102,14.1304273 L14.2351345,14.0457539 L14.2351345,13.4635078 C14.2351345,13.2604744 14.3620874,13.0910756 14.5308464,13.0518983 L14.605483,13.0433624 L14.9758314,13.0433624 C15.1866863,13.0433624 15.3307976,13.0814922 15.4076439,13.15886 C15.4695381,13.2202849 15.5073212,13.3312669 15.5215939,13.4917392 L15.5278996,13.6213719 L15.5326577,13.9583485 C15.5342871,14.0648514 15.5448462,14.1692034 15.5644651,14.2709482 C15.5698098,14.2990404 15.5777617,14.3313693 15.5872779,14.3689777 C15.6015521,14.4224899 15.8013265,14.4653778 16.0323217,14.4653778 C16.2633169,14.4653778 16.4509028,14.444716 16.4509028,14.4198176 C16.4509028,14.3949191 16.3979773,14.3456436 16.3587394,14.2863305 C16.3364481,14.2524373 16.3205443,14.2131994 16.3110281,14.1676391 C16.3000259,14.1206057 16.2937374,14.0392829 16.2916621,13.9237373 L16.2908878,13.8306624 L16.2908878,13.5869572 C16.2908878,13.3326278 16.2564731,13.1434777 16.1865358,13.0195068 C16.1494488,12.9538061 16.098609,12.8960573 16.0339512,12.8462604 C15.9322716,12.7678497 15.9582129,12.697391 16.0816624,12.59884 C16.1569444,12.5390054 16.216779,12.4658743 16.2618178,12.3800333 C16.3487017,12.2136958 16.3921763,12.0441646 16.3921763,11.8719611 C16.3921763,11.7294141 16.3699502,11.6022494 16.3249113,11.490467 C16.2803939,11.3786846 16.2195165,11.2769398 16.1426702,11.1852978 C16.0499853,11.0734502 15.9365734,10.9887172 15.8030863,10.9314898 C15.6690126,10.873741 15.4782982,10.842455 15.2303564,10.8376969 Z M8.64529778,10.8429764 L6.89849415,10.8429764 C6.69223807,10.8429764 6.52069275,10.9916044 6.48511794,11.1876006 L6.47841395,11.2631218 L6.47841395,14.0462102 C6.47841395,14.2782483 6.64683711,14.4663555 6.85508478,14.4663555 C7.03724446,14.4663555 7.1890133,14.3223359 7.22410927,14.1308836 L7.23175561,14.0462102 L7.23175561,13.365413 C7.23175561,13.1591569 7.38038358,12.9876116 7.57637979,12.9520368 L7.65190098,12.9452676 L8.41906063,12.9452676 C8.65109873,12.9452676 8.83920601,12.8037635 8.83920601,12.6299956 C8.83920601,12.4774355 8.69518637,12.3504755 8.50373407,12.3211192 L8.41906063,12.3147237 L7.65190098,12.3147237 C7.41986289,12.3147237 7.23175561,12.1282459 7.23175561,11.8977721 C7.23175561,11.69337 7.38038358,11.5229061 7.57637979,11.4875488 L7.65190098,11.4808205 L8.64529778,11.4808205 C8.87733587,11.4808205 9.06544315,11.3382735 9.06544315,11.1618985 C9.06544315,10.9855234 8.87733587,10.8429764 8.64529778,10.8429764 Z M11.1619334,11.3696247 C11.4623445,11.3696247 11.7007702,11.4803642 11.8772104,11.7028861 C12.0531291,11.9254081 12.1415774,12.2400934 12.1415774,12.6470074 C12.1415774,13.0554857 12.0536506,13.3706925 11.8772104,13.5921716 C11.7007702,13.8136506 11.4623445,13.9243902 11.1619334,13.9243902 C10.8620437,13.9243902 10.6220538,13.8136506 10.4430064,13.5921716 C10.2644804,13.3707577 10.1749242,13.0554857 10.1749242,12.6470074 C10.1749242,12.2385291 10.263959,11.9233223 10.4430064,11.7018433 C10.6220538,11.4803642 10.8615223,11.3696247 11.1619334,11.3696247 Z M15.0729485,11.4681757 C15.2287269,11.4681757 15.3457888,11.4894241 15.423678,11.5323121 C15.5625098,11.6075289 15.6319256,11.7553554 15.6319256,11.975205 C15.6319256,12.1786294 15.5599026,12.3147888 15.4168342,12.3836833 C15.3358164,12.4233775 15.2144526,12.4429964 15.0523519,12.4429964 L15.0523519,12.4429964 L14.644395,12.4429964 C14.4192007,12.4429964 14.2364381,12.2549543 14.2357863,12.022851 L14.2357863,12.022851 L14.2357863,11.8883211 C14.2357863,11.656283 14.4233722,11.4681757 14.6543674,11.4681757 L14.6543674,11.4681757 L15.0729485,11.4681757 Z" transform="translate(0 -8.896)"/>
</svg>
