<svg xmlns="http://www.w3.org/2000/svg" width="21" height="22" viewBox="0 0 21 22">
  <g fill="#000000" transform="translate(.41 .82)">
    <path d="M19.6891184,6.36027632 C18.9965526,5.66767105 17.8696184,5.66771053 17.1768158,6.36043421 C16.9637368,6.57371053 15.6032763,7.93527632 15.3954474,8.14330263 L15.3954474,3.45102632 C15.3954474,2.97655263 15.2106711,2.5305 14.8751447,2.19501316 L13.2004737,0.520263158 C12.8649868,0.184736842 12.4188947,0 11.9444211,0 L1.77702632,0 C0.797565789,0 0.000710526316,0.796855263 0.000710526316,1.77631579 L0.000710526316,18.4342105 C0.000710526316,19.4136711 0.797565789,20.2105263 1.77702632,20.2105263 L13.6191316,20.2105263 C14.5985921,20.2105263 15.3954474,19.4136711 15.3954474,18.4342105 L15.3954474,13.1696447 L19.6890789,8.87238158 C20.3833026,8.17819737 20.3834605,7.05453947 19.6891184,6.36027632 Z M11.8428553,1.18421053 C11.9547237,1.18421053 12.1702895,1.16482895 12.3631184,1.35761842 L14.0378289,3.03236842 C14.2257237,3.22030263 14.2112763,3.42623684 14.2112763,3.55263158 L11.8428553,3.55263158 L11.8428553,1.18421053 Z M14.2112368,18.4342105 C14.2112368,18.7606974 13.9456579,19.0263158 13.6191316,19.0263158 L1.77702632,19.0263158 C1.45053947,19.0263158 1.18492105,18.7606974 1.18492105,18.4342105 L1.18492105,1.77631579 C1.18492105,1.44982895 1.45053947,1.18421053 1.77702632,1.18421053 L10.6586053,1.18421053 L10.6586053,4.14473684 C10.6586053,4.47173684 10.9237105,4.73684211 11.2507105,4.73684211 L14.2112368,4.73684211 L14.2112368,9.32853947 C14.2112368,9.32853947 12.4643684,11.0769079 12.4642895,11.0769474 L11.6273289,11.9139474 C11.5623553,11.9789211 11.5133289,12.0581842 11.4842763,12.1453816 L10.6468816,14.6574868 C10.5759474,14.87025 10.6313289,15.1048421 10.7899342,15.2634079 C10.9487368,15.4222105 11.1834079,15.4773158 11.3958553,15.4064605 L13.9079605,14.5691053 C13.9951579,14.5400526 14.0744211,14.4910658 14.1393947,14.4260526 L14.2112368,14.3542105 L14.2112368,18.4342105 Z M12.8833421,12.3326447 L13.7206974,13.17 L13.4008421,13.4898553 L12.1448289,13.9085132 L12.5634868,12.6524605 L12.8833421,12.3326447 Z M14.5578947,12.3324474 L13.7205395,11.4950921 C14.1664342,11.0488421 16.1467895,9.06678947 16.5667895,8.64643421 L17.4041447,9.48378947 L14.5578947,12.3324474 Z M18.8515658,8.03518421 L18.2411842,8.64607895 L17.4038289,7.80872368 L18.0144079,7.19763158 C18.2454079,6.96675 18.6209605,6.96678947 18.8518026,7.19763158 C19.0826053,7.42855263 19.0838289,7.80288158 18.8515658,8.03518421 Z"/>
    <path d="M11.2507105,5.92105263 L2.96123684,5.92105263 C2.63423684,5.92105263 2.36913158,6.18615789 2.36913158,6.51315789 C2.36913158,6.84015789 2.63423684,7.10526316 2.96123684,7.10526316 L11.2507105,7.10526316 C11.5777105,7.10526316 11.8428158,6.84015789 11.8428158,6.51315789 C11.8428158,6.18615789 11.5777105,5.92105263 11.2507105,5.92105263 Z M8.88228947,8.28947368 L2.96123684,8.28947368 C2.63423684,8.28947368 2.36913158,8.55457895 2.36913158,8.88157895 C2.36913158,9.20857895 2.63423684,9.47368421 2.96123684,9.47368421 L8.88228947,9.47368421 C9.20928947,9.47368421 9.47439474,9.20857895 9.47439474,8.88157895 C9.47439474,8.55457895 9.20928947,8.28947368 8.88228947,8.28947368 Z M8.88228947,10.6578947 L2.96123684,10.6578947 C2.63423684,10.6578947 2.36913158,10.923 2.36913158,11.25 C2.36913158,11.577 2.63423684,11.8421053 2.96123684,11.8421053 L8.88228947,11.8421053 C9.20928947,11.8421053 9.47439474,11.577 9.47439474,11.25 C9.47439474,10.923 9.20928947,10.6578947 8.88228947,10.6578947 Z M8.88228947,13.0263158 L2.96123684,13.0263158 C2.63423684,13.0263158 2.36913158,13.2914211 2.36913158,13.6184211 C2.36913158,13.9454211 2.63423684,14.2105263 2.96123684,14.2105263 L8.88228947,14.2105263 C9.20928947,14.2105263 9.47439474,13.9454211 9.47439474,13.6184211 C9.47439474,13.2914211 9.20928947,13.0263158 8.88228947,13.0263158 Z M11.2507105,16.6578947 L7.69807895,16.6578947 C7.37107895,16.6578947 7.10597368,16.923 7.10597368,17.25 C7.10597368,17.577 7.37107895,17.8421053 7.69807895,17.8421053 L11.2507105,17.8421053 C11.5777105,17.8421053 11.8428158,17.577 11.8428158,17.25 C11.8428158,16.923 11.5777105,16.6578947 11.2507105,16.6578947 Z"/>
  </g>
</svg>
