<svg xmlns="http://www.w3.org/2000/svg" width="16" height="16" viewBox="0 0 16 16">
  <path fill="#384048" d="M6.69558272,16.3422105 C7.13700149,16.3422105 7.49484211,16.7044124 7.49484211,17.1414699 L7.49484211,22.2797932 C7.49484211,22.721212 7.13264021,23.0790526 6.69558272,23.0790526 L1.55725939,23.0790526 C1.11584062,23.0790526 0.758,22.7168507 0.758,22.2797932 L0.758,17.1414699 C0.758,16.7000511 1.12020189,16.3422105 1.55725939,16.3422105 L6.69558272,16.3422105 Z M14.7797932,16.3422105 C15.221212,16.3422105 15.5790526,16.7044124 15.5790526,17.1414699 L15.5790526,22.2797932 C15.5790526,22.721212 15.2168507,23.0790526 14.7797932,23.0790526 L9.64146991,23.0790526 C9.20005114,23.0790526 8.84221053,22.7168507 8.84221053,22.2797932 L8.84221053,17.1414699 C8.84221053,16.7000511 9.20441242,16.3422105 9.64146991,16.3422105 L14.7797932,16.3422105 Z M6.69558272,8.258 C7.13700149,8.258 7.49484211,8.62020189 7.49484211,9.05725939 L7.49484211,14.1955827 C7.49484211,14.6370015 7.13264021,14.9948421 6.69558272,14.9948421 L1.55725939,14.9948421 C1.11584062,14.9948421 0.758,14.6326402 0.758,14.1955827 L0.758,9.05725939 C0.758,8.61584062 1.12020189,8.258 1.55725939,8.258 L6.69558272,8.258 Z M14.7797932,8.258 C15.221212,8.258 15.5790526,8.62020189 15.5790526,9.05725939 L15.5790526,14.1955827 C15.5790526,14.6370015 15.2168507,14.9948421 14.7797932,14.9948421 L9.64146991,14.9948421 C9.20005114,14.9948421 8.84221053,14.6326402 8.84221053,14.1955827 L8.84221053,9.05725939 C8.84221053,8.61584062 9.20441242,8.258 9.64146991,8.258 L14.7797932,8.258 Z" transform="translate(.092 -7.696)"/>
</svg>
