<svg width="224" height="102" viewBox="0 0 224 102" version="1.1" xmlns="http://www.w3.org/2000/svg"><g id="Symbols" stroke="none" stroke-width="1" fill="none" fill-rule="evenodd"><g id="RTP/Logo/Symbol/Color" transform="translate(0 -1)"><g id="Group" transform="translate(0 1)"><path d="M216.916 93.952v2.403h1.584c.418-.045 1.716-.016 1.716-1.24 0-1.15-1.157-1.163-1.575-1.163h-1.725zm1.86-.594c.643 0 2.217.157 2.217 1.719 0 .633-.29 1.208-1.157 1.535.736.219.984.682 1.028 1.44.084 1.21.084 1.336.213 1.6h-.775c-.103-.17-.131-.588-.19-1.453-.041-.706-.128-1.265-1.64-1.265h-1.556v2.718h-.777v-6.294h2.637zm-.276-1.741c-2.782 0-4.841 2.22-4.841 4.883 0 2.721 2.133 4.883 4.841 4.883 2.676 0 4.825-2.136 4.825-4.883 0-2.65-2.03-4.883-4.812-4.883h-.013zm.026-.617c3.1 0 5.474 2.477 5.474 5.5 0 3.097-2.464 5.5-5.5 5.5-3.071 0-5.5-2.387-5.5-5.5 0-2.997 2.352-5.5 5.513-5.5h.013z" id="Fill-38" fill="#231F20"/><path id="Fill-1" fill="#559FD2" d="M7 76.503L106 77 28.483 64.517 68.365 0z"/><path id="Fill-2" fill="#00529A" d="M50 52.126L78.414 6 205 100 82.228 22.539z"/><path id="Fill-3" fill="#E21836" d="M0 87.026h141.548L98.87 46 183 99z"/></g></g></g></svg>