<?xml version="1.0" encoding="UTF-8"?>
<svg width="48px" height="48px" viewBox="0 0 48 48" version="1.1" xmlns="http://www.w3.org/2000/svg" xmlns:xlink="http://www.w3.org/1999/xlink">
    <!-- Generator: Sketch 55.2 (78181) - https://sketchapp.com -->
    <title>Icon / Social / Twitter Symbol</title>
    <desc>Created with Sketch.</desc>
    <defs>
        <path d="M22.7377551,5.59454098 C22.7469388,5.80698803 22.7530612,6.01943508 22.7530612,6.23489556 C22.7530612,12.7695257 17.6989796,20.3061224 8.45714286,20.3061224 C5.61938776,20.3061224 2.97908163,19.4879753 0.755102041,18.0852221 C1.14846939,18.1304236 1.54795918,18.1530243 1.95357143,18.1530243 C4.30765306,18.1530243 6.47346939,17.3635048 8.19387755,16.0360874 C5.99438776,15.9969128 4.13928571,14.5670387 3.4994898,12.6022802 C3.80714286,12.6595354 4.12091837,12.6896697 4.44540816,12.6896697 C4.90306122,12.6896697 5.34693878,12.6294011 5.76938776,12.5163973 C3.47040816,12.0628756 1.73928571,10.0634626 1.73928571,7.6677831 L1.73928571,7.604501 C2.41581633,7.9751533 3.19183673,8.19814737 4.01530612,8.22376155 C2.66683673,7.33630544 1.77908163,5.82205519 1.77908163,4.10741163 C1.77908163,3.2003682 2.02704082,2.35058001 2.46020408,1.61982243 C4.93826531,4.61216171 8.64081633,6.58144039 12.8163265,6.78786057 C12.7306122,6.42624857 12.6862245,6.04806269 12.6862245,5.66083651 C12.6862245,2.92915921 14.9362245,0.714285714 17.7096939,0.714285714 C19.1561224,0.714285714 20.4617347,1.31546566 21.3770408,2.27675089 C22.5219388,2.05526354 23.5979592,1.64392989 24.5683673,1.07740443 C24.1933673,2.23154939 23.3959184,3.2003682 22.3596939,3.81360188 C23.3760204,3.69306455 24.3433673,3.42788242 25.244898,3.03462937 C24.5714286,4.02604893 23.7188776,4.89693116 22.7377551,5.59454098 L22.7377551,5.59454098 Z" id="path-1"></path>
    </defs>
    <g id="Icon-/-Social-/-Twitter-Symbol" stroke="none" stroke-width="1" fill="none" fill-rule="evenodd">
        <g id="↳🎨-Color" transform="translate(11.000000, 13.000000)">
            <mask id="mask-2" fill="white">
                <use xlink:href="#path-1"></use>
            </mask>
            <use id="Mask" fill="#333F48" xlink:href="#path-1"></use>
        </g>
    </g>
</svg>
