<svg width="251" height="215" xmlns="http://www.w3.org/2000/svg" xmlns:xlink="http://www.w3.org/1999/xlink"><defs><path id="a" d="M.68.039h282v248H.68z"/><path d="M639.794 389.548v7.325h-7.322v-1.788h5.535v-5.537h1.787zm-60.762 0v7.325h-7.32v-1.788h5.532v-5.537h1.788zm-60.763 0v7.325h-7.32v-1.788h5.533v-5.537h1.787zm-60.762 0v7.325h-7.32v-1.788h5.532v-5.537h1.788zm-60.762 0v7.325h-7.321v-1.788h5.533v-5.537h1.788zm-60.763 0v7.325h-7.32v-1.788h5.532v-5.537h1.788zm-60.764 0v7.325h-7.319v-1.788h5.533v-5.537h1.786zm-60.76 0v7.325h-7.321v-1.788h5.532v-5.537h1.788zm-60.763 0v7.325h-7.32v-1.788h5.532v-5.537h1.788zm-60.763 0v7.325h-7.32v-1.788h5.533v-5.537h1.787zm-60.762 0v7.325h-7.32v-1.788h5.532v-5.537h1.788zm582.773-24.855v1.788h-5.532v5.535h-1.788v-7.323h7.32zm-60.76 0v1.788h-5.533v5.535h-1.788v-7.323h7.32zm-60.763 0v1.788h-5.534v5.535H486.1v-7.323h7.32zm-60.762 0v1.788h-5.533v5.535h-1.788v-7.323h7.32zm-60.763 0v1.788h-5.533v5.535h-1.785l-.002-7.323h7.32zm-60.762 0v1.788H305.6v5.535h-1.788v-7.323h7.321zm-60.762 0v1.788h-5.533l.001 5.535h-1.79v-7.323h7.322zm-60.763 0v1.788h-5.533v5.535h-1.788v-7.323h7.321zm-60.762 0v1.788h-5.533v5.535h-1.788v-7.323h7.32zm-60.763 0v1.788H62.55v5.535h-1.79v-7.323h7.323zm-60.762 0v1.788H1.788v5.535H0v-7.323h7.32zm632.473-35.923v7.32h-7.322v-1.787h5.535v-5.533h1.787zm-60.762 0v7.32h-7.32v-1.787h5.532v-5.533h1.788zm-60.763 0v7.32h-7.32v-1.787h5.533v-5.533h1.787zm-60.762 0v7.32h-7.32v-1.787h5.532v-5.533h1.788zm-60.762 0v7.32h-7.321v-1.787h5.533v-5.533h1.788zm-60.763 0v7.32h-7.32v-1.787h5.532v-5.533h1.788zm-60.764 0v7.32h-7.319v-1.787h5.533v-5.533h1.786zm-60.76 0v7.32h-7.321v-1.787h5.532v-5.533h1.788zm-60.763 0v7.32h-7.32v-1.787h5.532v-5.533h1.788zm-60.763 0v7.32h-7.32v-1.787h5.533v-5.533h1.787zm-60.762 0v7.32h-7.32v-1.787h5.532v-5.533h1.788zm35.913-24.86v1.789H62.55v5.535h-1.79v-7.323h7.323zm-60.762 0v1.789H1.788v5.535H0v-7.323h7.32zm607.622 0v1.789h-5.532v5.535h-1.788v-7.323h7.32zm-60.76 0v1.789h-5.533v5.535h-1.788v-7.323h7.32zm-60.763 0v1.789h-5.534v5.535H486.1v-7.323h7.32zm-60.762 0v1.789h-5.533v5.535h-1.788v-7.323h7.32zm-60.763 0v1.789h-5.533v5.535h-1.785l-.002-7.323h7.32zm-60.762 0v1.789H305.6v5.535h-1.788v-7.323h7.321zm-60.762 0v1.789h-5.533l.001 5.535h-1.79v-7.323h7.322zm-60.763 0v1.789h-5.533v5.535h-1.788v-7.323h7.321zm-60.762 0v1.789h-5.533v5.535h-1.788v-7.323h7.32zm328.661-35.924v7.323h-7.32v-1.79h5.532v-5.533h1.788zm-121.525 0v7.323h-7.32v-1.79h5.532v-5.533h1.788zm303.812 0v7.323h-7.322v-1.79h5.535v-5.533h1.787zm-60.762 0v7.323h-7.32v-1.79h5.532v-5.533h1.788zm-60.763 0v7.323h-7.32v-1.79h5.533v-5.533h1.787zm-486.1 0v7.323h-7.32v-1.79h5.533v-5.533h1.788zm243.049 0v7.323h-7.319v-1.79h5.533v-5.533h1.786zm-60.76 0v7.323h-7.321v-1.79h5.532v-5.533h1.788zm-60.763 0v7.323h-7.32v-1.79h5.532v-5.533h1.788zm-60.763 0v7.323h-7.32v-1.79h5.533v-5.533h1.787zm303.813 0v7.323h-7.321v-1.79h5.533v-5.533h1.788zm218.198-24.857v1.788h-5.532v5.535h-1.788v-7.323h7.32zm-60.76 0v1.788h-5.533v5.535h-1.788v-7.323h7.32zm-60.763 0v1.788h-5.534v5.535H486.1v-7.323h7.32zm-60.762 0v1.788h-5.533v5.535h-1.788v-7.323h7.32zm-121.525 0v1.788H305.6v5.535h-1.788v-7.323h7.321zm60.762 0v1.788h-5.533v5.535h-1.785l-.002-7.323h7.32zm-364.574 0v1.788H1.788v5.535H0v-7.323h7.32zm121.525 0v1.788h-5.533v5.535h-1.788v-7.323h7.32zm-60.763 0v1.788H62.55v5.535h-1.79v-7.323h7.323zm182.288 0v1.788h-5.533l.001 5.535h-1.79v-7.323h7.322zm-60.763 0v1.788h-5.533v5.535h-1.788v-7.323h7.321zm450.186-35.925v7.324h-7.322v-1.788h5.535v-5.536h1.787zm-60.762 0v7.324h-7.32v-1.788h5.532v-5.536h1.788zm-60.763 0v7.324h-7.32v-1.788h5.533v-5.536h1.787zm-60.762 0v7.324h-7.32v-1.788h5.532v-5.536h1.788zm-60.762 0v7.324h-7.321v-1.788h5.533v-5.536h1.788zm-60.763 0v7.324h-7.32v-1.788h5.532v-5.536h1.788zm-60.764 0v7.324h-7.319v-1.788h5.533v-5.536h1.786zm-60.76 0v7.324h-7.321v-1.788h5.532v-5.536h1.788zm-60.763 0v7.324h-7.32v-1.788h5.532v-5.536h1.788zm-60.763 0v7.324h-7.32v-1.788h5.533v-5.536h1.787zm-60.762 0v7.324h-7.32v-1.788h5.532v-5.536h1.788zm461.25-24.858v1.789h-5.534v5.534H486.1v-7.323h7.32zm-425.337 0v1.789H62.55v5.534h-1.79v-7.323h7.323zm243.05 0v1.789H305.6v5.534h-1.788v-7.323h7.321zm303.81 0v1.789h-5.532v5.534h-1.788v-7.323h7.32zm-607.622 0v1.789H1.788v5.534H0v-7.323h7.32zm243.05 0v1.789h-5.533l.001 5.534h-1.79v-7.323h7.322zm121.524 0v1.789h-5.533v5.534h-1.785l-.002-7.323h7.32zm60.763 0v1.789h-5.533v5.534h-1.788v-7.323h7.32zm-243.05 0v1.789h-5.533v5.534h-1.788v-7.323h7.321zm-60.762 0v1.789h-5.533v5.534h-1.788v-7.323h7.32zm425.337 0v1.789h-5.533v5.534h-1.788v-7.323h7.32zm-278.965-35.925v7.324h-7.319v-1.789h5.533v-5.535h1.786zm-243.048 0v7.324h-7.32v-1.789h5.532v-5.535h1.788zm546.862 0v7.324h-7.32v-1.789h5.532v-5.535h1.788zm-182.287 0v7.324h-7.321v-1.789h5.533v-5.535h1.788zm243.05 0v7.324h-7.323v-1.789h5.535v-5.535h1.787zm-425.338 0v7.324h-7.32v-1.789h5.532v-5.535h1.788zm121.525 0v7.324h-7.32v-1.789h5.532v-5.535h1.788zm-182.287 0v7.324h-7.32v-1.789h5.532v-5.535h1.788zm-60.763 0v7.324h-7.32v-1.789h5.533v-5.535h1.787zm425.337 0v7.324h-7.32v-1.789h5.533v-5.535h1.787zm-60.762 0v7.324h-7.32v-1.789h5.532v-5.535h1.788zm96.676-24.857v1.789h-5.533v5.534h-1.788v-7.323h7.32zm-486.1 0v1.789H62.55v5.534h-1.79v-7.323h7.323zm425.337 0v1.789h-5.534v5.534H486.1v-7.323h7.32zm-182.287 0v1.789H305.6v5.534h-1.788v-7.323h7.321zm-60.762 0v1.789h-5.533l.001 5.534h-1.79v-7.323h7.322zm-243.05 0v1.789H1.788v5.534H0v-7.323h7.32zm607.622 0v1.789h-5.532v5.534h-1.788v-7.323h7.32zm-425.335 0v1.789h-5.533v5.534h-1.788v-7.323h7.321zm-60.762 0v1.789h-5.533v5.534h-1.788v-7.323h7.32zm303.812 0v1.789h-5.533v5.534h-1.788v-7.323h7.32zm-60.763 0v1.789h-5.533v5.534h-1.785l-.002-7.323h7.32zm267.9-35.925v7.323h-7.323v-1.788h5.535V85.64h1.787zm-60.763 0v7.323h-7.32v-1.788h5.532V85.64h1.788zm-486.1 0v7.323h-7.32v-1.788h5.533V85.64h1.787zm425.337 0v7.323h-7.32v-1.788h5.533V85.64h1.787zm-182.287 0v7.323h-7.32v-1.788h5.532V85.64h1.788zm-60.764 0v7.323h-7.319v-1.788h5.533V85.64h1.786zm-243.048 0v7.323h-7.32v-1.788h5.532V85.64h1.788zm182.287 0v7.323h-7.32v-1.788h5.532V85.64h1.788zm-60.762 0v7.323h-7.32v-1.788h5.532V85.64h1.788zm303.812 0v7.323h-7.32v-1.788h5.532V85.64h1.788zm-60.762 0v7.323h-7.321v-1.788h5.533V85.64h1.788zm218.198-24.857v1.788h-5.532v5.535h-1.788v-7.323h7.32zm-60.76 0v1.788h-5.533v5.535h-1.788v-7.323h7.32zm-486.1 0v1.788H62.55v5.535h-1.79v-7.323h7.323zm425.337 0v1.788h-5.534v5.535H486.1v-7.323h7.32zm-182.287 0v1.788H305.6v5.535h-1.788v-7.323h7.321zm-60.762 0v1.788h-5.533l.001 5.535h-1.79v-7.323h7.322zm-243.05 0v1.788H1.788v5.535H0v-7.323h7.32zm182.287 0v1.788h-5.533v5.535h-1.788v-7.323h7.321zm-60.762 0v1.788h-5.533v5.535h-1.788v-7.323h7.32zm303.812 0v1.788h-5.533v5.535h-1.788v-7.323h7.32zm-60.763 0v1.788h-5.533v5.535h-1.785l-.002-7.323h7.32zm24.85-35.925v7.323h-7.321v-1.788h5.533v-5.535h1.788zm-60.763 0v7.323h-7.32v-1.788h5.532v-5.535h1.788zm-60.764 0v7.323h-7.319v-1.788h5.533v-5.535h1.786zm-60.76 0v7.323h-7.321v-1.788h5.532v-5.535h1.788zm303.811 0v7.323h-7.32v-1.788h5.533v-5.535h1.787zm60.763 0v7.323h-7.32v-1.788h5.532v-5.535h1.788zm-121.525 0v7.323h-7.32v-1.788h5.532v-5.535h1.788zm182.287 0v7.323h-7.322v-1.788h5.535v-5.535h1.787zm-486.1 0v7.323h-7.32v-1.788h5.533v-5.535h1.788zm-60.762 0v7.323h-7.32v-1.788h5.533v-5.535h1.787zm-60.762 0v7.323h-7.32v-1.788h5.532v-5.535h1.788zM614.943 0v1.788h-5.532v5.535h-1.788V0h7.32zm-60.76 0v1.788h-5.533v5.535h-1.788V0h7.32zM493.42 0v1.788h-5.534v5.535H486.1V0h7.32zm-60.762 0v1.788h-5.533v5.535h-1.788V0h7.32zm-60.763 0v1.788h-5.533v5.535h-1.785L364.575 0h7.32zm-60.762 0v1.788H305.6v5.535h-1.788V0h7.321zm-60.762 0v1.788h-5.533l.001 5.535h-1.79V0h7.322zm-60.763 0v1.788h-5.533v5.535h-1.788V0h7.321zm-60.762 0v1.788h-5.533v5.535h-1.788V0h7.32zM68.083 0v1.788H62.55v5.535h-1.79V0h7.323zM7.321 0v1.788H1.788v5.535H0V0h7.32z" id="c"/></defs><g transform="translate(-15.68 -13.04)" fill="none" fill-rule="evenodd"><mask id="b" fill="#fff"><use xlink:href="#a"/></mask><g mask="url(#b)"><g transform="translate(-69.32 -168.96)"><mask id="d" fill="#fff"><use xlink:href="#c"/></mask><use fill="#FFF" xlink:href="#c"/><g mask="url(#d)" fill="#FFF"><path d="M0 0h640v397H0z"/></g></g></g></g></svg>
