<svg width="173" height="342" xmlns="http://www.w3.org/2000/svg" xmlns:xlink="http://www.w3.org/1999/xlink"><defs><path d="M73.616 154.964c4.946 0 8.955 4.016 8.955 8.973 0 4.956-4.01 8.973-8.955 8.973-4.947 0-8.957-4.017-8.957-8.973 0-4.957 4.01-8.973 8.957-8.973zm-21.553 0c4.945 0 8.955 4.016 8.955 8.973 0 4.956-4.01 8.973-8.955 8.973-4.947 0-8.957-4.017-8.957-8.973 0-4.957 4.01-8.973 8.957-8.973zm-21.553 0c4.945 0 8.955 4.016 8.955 8.973 0 4.956-4.01 8.973-8.955 8.973-4.947 0-8.957-4.017-8.957-8.973 0-4.957 4.01-8.973 8.957-8.973zm-21.553 0c4.945 0 8.954 4.016 8.954 8.973 0 4.956-4.009 8.973-8.954 8.973-4.947 0-8.957-4.017-8.957-8.973 0-4.957 4.01-8.973 8.957-8.973zm64.659-25.825c4.946 0 8.955 4.017 8.955 8.973s-4.01 8.973-8.955 8.973c-4.947 0-8.957-4.017-8.957-8.973s4.01-8.973 8.957-8.973zm-21.553 0c4.945 0 8.955 4.017 8.955 8.973s-4.01 8.973-8.955 8.973c-4.947 0-8.957-4.017-8.957-8.973s4.01-8.973 8.957-8.973zm-21.553 0c4.945 0 8.955 4.017 8.955 8.973s-4.01 8.973-8.955 8.973c-4.947 0-8.957-4.017-8.957-8.973s4.01-8.973 8.957-8.973zm-21.553 0c4.945 0 8.954 4.017 8.954 8.973s-4.009 8.973-8.954 8.973c-4.947 0-8.957-4.017-8.957-8.973s4.01-8.973 8.957-8.973zm64.659-25.824c4.946 0 8.955 4.016 8.955 8.973 0 4.956-4.01 8.973-8.955 8.973-4.947 0-8.957-4.017-8.957-8.973 0-4.957 4.01-8.973 8.957-8.973zm-21.553 0c4.945 0 8.955 4.016 8.955 8.973 0 4.956-4.01 8.973-8.955 8.973-4.947 0-8.957-4.017-8.957-8.973 0-4.957 4.01-8.973 8.957-8.973zm-21.553 0c4.945 0 8.955 4.016 8.955 8.973 0 4.956-4.01 8.973-8.955 8.973-4.947 0-8.957-4.017-8.957-8.973 0-4.957 4.01-8.973 8.957-8.973zm-21.553 0c4.945 0 8.954 4.016 8.954 8.973 0 4.956-4.009 8.973-8.954 8.973-4.947 0-8.957-4.017-8.957-8.973 0-4.957 4.01-8.973 8.957-8.973zM73.616 77.49c4.946 0 8.955 4.017 8.955 8.973 0 4.955-4.01 8.973-8.955 8.973-4.947 0-8.957-4.018-8.957-8.973 0-4.956 4.01-8.973 8.957-8.973zm-21.553 0c4.945 0 8.955 4.017 8.955 8.973 0 4.955-4.01 8.973-8.955 8.973-4.947 0-8.957-4.018-8.957-8.973 0-4.956 4.01-8.973 8.957-8.973zm-21.553 0c4.945 0 8.955 4.017 8.955 8.973 0 4.955-4.01 8.973-8.955 8.973-4.947 0-8.957-4.018-8.957-8.973 0-4.956 4.01-8.973 8.957-8.973zm-21.553 0c4.945 0 8.954 4.017 8.954 8.973 0 4.955-4.009 8.973-8.954 8.973C4.01 95.437 0 91.419 0 86.464c0-4.956 4.01-8.973 8.957-8.973zm64.659-25.825c4.946 0 8.955 4.017 8.955 8.973s-4.01 8.973-8.955 8.973c-4.947 0-8.957-4.017-8.957-8.973s4.01-8.973 8.957-8.973zm-21.553 0c4.945 0 8.955 4.017 8.955 8.973s-4.01 8.973-8.955 8.973c-4.947 0-8.957-4.017-8.957-8.973s4.01-8.973 8.957-8.973zm-21.553 0c4.945 0 8.955 4.017 8.955 8.973s-4.01 8.973-8.955 8.973c-4.947 0-8.957-4.017-8.957-8.973s4.01-8.973 8.957-8.973zm-21.553 0c4.945 0 8.954 4.017 8.954 8.973s-4.009 8.973-8.954 8.973C4.01 69.612 0 65.595 0 60.64s4.01-8.973 8.957-8.973zm64.659-25.824c4.946 0 8.955 4.017 8.955 8.973s-4.01 8.973-8.955 8.973c-4.947 0-8.957-4.017-8.957-8.973s4.01-8.973 8.957-8.973zm-21.553 0c4.945 0 8.955 4.017 8.955 8.973s-4.01 8.973-8.955 8.973c-4.947 0-8.957-4.017-8.957-8.973s4.01-8.973 8.957-8.973zm-21.553 0c4.945 0 8.955 4.017 8.955 8.973s-4.01 8.973-8.955 8.973c-4.947 0-8.957-4.017-8.957-8.973s4.01-8.973 8.957-8.973zm-21.553 0c4.945 0 8.954 4.017 8.954 8.973s-4.009 8.973-8.954 8.973C4.01 43.788 0 39.77 0 34.815s4.01-8.973 8.957-8.973zM73.616.017c4.946 0 8.955 4.018 8.955 8.974 0 4.955-4.01 8.973-8.955 8.973-4.947 0-8.957-4.018-8.957-8.973 0-4.956 4.01-8.974 8.957-8.974zm-21.553 0c4.945 0 8.955 4.018 8.955 8.974 0 4.955-4.01 8.973-8.955 8.973-4.947 0-8.957-4.018-8.957-8.973 0-4.956 4.01-8.974 8.957-8.974zm-21.553 0c4.945 0 8.955 4.018 8.955 8.974 0 4.955-4.01 8.973-8.955 8.973-4.947 0-8.957-4.018-8.957-8.973 0-4.956 4.01-8.974 8.957-8.974zm-21.553 0c4.945 0 8.954 4.018 8.954 8.974 0 4.955-4.009 8.973-8.954 8.973C4.01 17.964 0 13.946 0 8.99 0 4.035 4.01.017 8.957.017z" id="a"/><path d="M73.616 154.964c4.946 0 8.955 4.016 8.955 8.973 0 4.956-4.01 8.973-8.955 8.973-4.947 0-8.957-4.017-8.957-8.973 0-4.957 4.01-8.973 8.957-8.973zm-21.553 0c4.945 0 8.955 4.016 8.955 8.973 0 4.956-4.01 8.973-8.955 8.973-4.947 0-8.957-4.017-8.957-8.973 0-4.957 4.01-8.973 8.957-8.973zm-21.553 0c4.945 0 8.955 4.016 8.955 8.973 0 4.956-4.01 8.973-8.955 8.973-4.947 0-8.957-4.017-8.957-8.973 0-4.957 4.01-8.973 8.957-8.973zm-21.553 0c4.945 0 8.954 4.016 8.954 8.973 0 4.956-4.009 8.973-8.954 8.973-4.947 0-8.957-4.017-8.957-8.973 0-4.957 4.01-8.973 8.957-8.973zm64.659-25.825c4.946 0 8.955 4.017 8.955 8.973s-4.01 8.973-8.955 8.973c-4.947 0-8.957-4.017-8.957-8.973s4.01-8.973 8.957-8.973zm-21.553 0c4.945 0 8.955 4.017 8.955 8.973s-4.01 8.973-8.955 8.973c-4.947 0-8.957-4.017-8.957-8.973s4.01-8.973 8.957-8.973zm-21.553 0c4.945 0 8.955 4.017 8.955 8.973s-4.01 8.973-8.955 8.973c-4.947 0-8.957-4.017-8.957-8.973s4.01-8.973 8.957-8.973zm-21.553 0c4.945 0 8.954 4.017 8.954 8.973s-4.009 8.973-8.954 8.973c-4.947 0-8.957-4.017-8.957-8.973s4.01-8.973 8.957-8.973zm64.659-25.824c4.946 0 8.955 4.016 8.955 8.973 0 4.956-4.01 8.973-8.955 8.973-4.947 0-8.957-4.017-8.957-8.973 0-4.957 4.01-8.973 8.957-8.973zm-21.553 0c4.945 0 8.955 4.016 8.955 8.973 0 4.956-4.01 8.973-8.955 8.973-4.947 0-8.957-4.017-8.957-8.973 0-4.957 4.01-8.973 8.957-8.973zm-21.553 0c4.945 0 8.955 4.016 8.955 8.973 0 4.956-4.01 8.973-8.955 8.973-4.947 0-8.957-4.017-8.957-8.973 0-4.957 4.01-8.973 8.957-8.973zm-21.553 0c4.945 0 8.954 4.016 8.954 8.973 0 4.956-4.009 8.973-8.954 8.973-4.947 0-8.957-4.017-8.957-8.973 0-4.957 4.01-8.973 8.957-8.973zM73.616 77.49c4.946 0 8.955 4.017 8.955 8.973 0 4.955-4.01 8.973-8.955 8.973-4.947 0-8.957-4.018-8.957-8.973 0-4.956 4.01-8.973 8.957-8.973zm-21.553 0c4.945 0 8.955 4.017 8.955 8.973 0 4.955-4.01 8.973-8.955 8.973-4.947 0-8.957-4.018-8.957-8.973 0-4.956 4.01-8.973 8.957-8.973zm-21.553 0c4.945 0 8.955 4.017 8.955 8.973 0 4.955-4.01 8.973-8.955 8.973-4.947 0-8.957-4.018-8.957-8.973 0-4.956 4.01-8.973 8.957-8.973zm-21.553 0c4.945 0 8.954 4.017 8.954 8.973 0 4.955-4.009 8.973-8.954 8.973C4.01 95.437 0 91.419 0 86.464c0-4.956 4.01-8.973 8.957-8.973zm64.659-25.825c4.946 0 8.955 4.017 8.955 8.973s-4.01 8.973-8.955 8.973c-4.947 0-8.957-4.017-8.957-8.973s4.01-8.973 8.957-8.973zm-21.553 0c4.945 0 8.955 4.017 8.955 8.973s-4.01 8.973-8.955 8.973c-4.947 0-8.957-4.017-8.957-8.973s4.01-8.973 8.957-8.973zm-21.553 0c4.945 0 8.955 4.017 8.955 8.973s-4.01 8.973-8.955 8.973c-4.947 0-8.957-4.017-8.957-8.973s4.01-8.973 8.957-8.973zm-21.553 0c4.945 0 8.954 4.017 8.954 8.973s-4.009 8.973-8.954 8.973C4.01 69.612 0 65.595 0 60.64s4.01-8.973 8.957-8.973zm64.659-25.824c4.946 0 8.955 4.017 8.955 8.973s-4.01 8.973-8.955 8.973c-4.947 0-8.957-4.017-8.957-8.973s4.01-8.973 8.957-8.973zm-21.553 0c4.945 0 8.955 4.017 8.955 8.973s-4.01 8.973-8.955 8.973c-4.947 0-8.957-4.017-8.957-8.973s4.01-8.973 8.957-8.973zm-21.553 0c4.945 0 8.955 4.017 8.955 8.973s-4.01 8.973-8.955 8.973c-4.947 0-8.957-4.017-8.957-8.973s4.01-8.973 8.957-8.973zm-21.553 0c4.945 0 8.954 4.017 8.954 8.973s-4.009 8.973-8.954 8.973C4.01 43.788 0 39.77 0 34.815s4.01-8.973 8.957-8.973zM73.616.017c4.946 0 8.955 4.018 8.955 8.974 0 4.955-4.01 8.973-8.955 8.973-4.947 0-8.957-4.018-8.957-8.973 0-4.956 4.01-8.974 8.957-8.974zm-21.553 0c4.945 0 8.955 4.018 8.955 8.974 0 4.955-4.01 8.973-8.955 8.973-4.947 0-8.957-4.018-8.957-8.973 0-4.956 4.01-8.974 8.957-8.974zm-21.553 0c4.945 0 8.955 4.018 8.955 8.974 0 4.955-4.01 8.973-8.955 8.973-4.947 0-8.957-4.018-8.957-8.973 0-4.956 4.01-8.974 8.957-8.974zm-21.553 0c4.945 0 8.954 4.018 8.954 8.974 0 4.955-4.009 8.973-8.954 8.973C4.01 17.964 0 13.946 0 8.99 0 4.035 4.01.017 8.957.017z" id="c"/><path d="M73.616 154.964c4.946 0 8.955 4.016 8.955 8.973 0 4.956-4.01 8.973-8.955 8.973-4.947 0-8.957-4.017-8.957-8.973 0-4.957 4.01-8.973 8.957-8.973zm-21.553 0c4.945 0 8.955 4.016 8.955 8.973 0 4.956-4.01 8.973-8.955 8.973-4.947 0-8.957-4.017-8.957-8.973 0-4.957 4.01-8.973 8.957-8.973zm-21.553 0c4.945 0 8.955 4.016 8.955 8.973 0 4.956-4.01 8.973-8.955 8.973-4.947 0-8.957-4.017-8.957-8.973 0-4.957 4.01-8.973 8.957-8.973zm-21.553 0c4.945 0 8.954 4.016 8.954 8.973 0 4.956-4.009 8.973-8.954 8.973-4.947 0-8.957-4.017-8.957-8.973 0-4.957 4.01-8.973 8.957-8.973zm64.659-25.825c4.946 0 8.955 4.017 8.955 8.973s-4.01 8.973-8.955 8.973c-4.947 0-8.957-4.017-8.957-8.973s4.01-8.973 8.957-8.973zm-21.553 0c4.945 0 8.955 4.017 8.955 8.973s-4.01 8.973-8.955 8.973c-4.947 0-8.957-4.017-8.957-8.973s4.01-8.973 8.957-8.973zm-21.553 0c4.945 0 8.955 4.017 8.955 8.973s-4.01 8.973-8.955 8.973c-4.947 0-8.957-4.017-8.957-8.973s4.01-8.973 8.957-8.973zm-21.553 0c4.945 0 8.954 4.017 8.954 8.973s-4.009 8.973-8.954 8.973c-4.947 0-8.957-4.017-8.957-8.973s4.01-8.973 8.957-8.973zm64.659-25.824c4.946 0 8.955 4.016 8.955 8.973 0 4.956-4.01 8.973-8.955 8.973-4.947 0-8.957-4.017-8.957-8.973 0-4.957 4.01-8.973 8.957-8.973zm-21.553 0c4.945 0 8.955 4.016 8.955 8.973 0 4.956-4.01 8.973-8.955 8.973-4.947 0-8.957-4.017-8.957-8.973 0-4.957 4.01-8.973 8.957-8.973zm-21.553 0c4.945 0 8.955 4.016 8.955 8.973 0 4.956-4.01 8.973-8.955 8.973-4.947 0-8.957-4.017-8.957-8.973 0-4.957 4.01-8.973 8.957-8.973zm-21.553 0c4.945 0 8.954 4.016 8.954 8.973 0 4.956-4.009 8.973-8.954 8.973-4.947 0-8.957-4.017-8.957-8.973 0-4.957 4.01-8.973 8.957-8.973zM73.616 77.49c4.946 0 8.955 4.017 8.955 8.973 0 4.955-4.01 8.973-8.955 8.973-4.947 0-8.957-4.018-8.957-8.973 0-4.956 4.01-8.973 8.957-8.973zm-21.553 0c4.945 0 8.955 4.017 8.955 8.973 0 4.955-4.01 8.973-8.955 8.973-4.947 0-8.957-4.018-8.957-8.973 0-4.956 4.01-8.973 8.957-8.973zm-21.553 0c4.945 0 8.955 4.017 8.955 8.973 0 4.955-4.01 8.973-8.955 8.973-4.947 0-8.957-4.018-8.957-8.973 0-4.956 4.01-8.973 8.957-8.973zm-21.553 0c4.945 0 8.954 4.017 8.954 8.973 0 4.955-4.009 8.973-8.954 8.973C4.01 95.437 0 91.419 0 86.464c0-4.956 4.01-8.973 8.957-8.973zm64.659-25.825c4.946 0 8.955 4.017 8.955 8.973s-4.01 8.973-8.955 8.973c-4.947 0-8.957-4.017-8.957-8.973s4.01-8.973 8.957-8.973zm-21.553 0c4.945 0 8.955 4.017 8.955 8.973s-4.01 8.973-8.955 8.973c-4.947 0-8.957-4.017-8.957-8.973s4.01-8.973 8.957-8.973zm-21.553 0c4.945 0 8.955 4.017 8.955 8.973s-4.01 8.973-8.955 8.973c-4.947 0-8.957-4.017-8.957-8.973s4.01-8.973 8.957-8.973zm-21.553 0c4.945 0 8.954 4.017 8.954 8.973s-4.009 8.973-8.954 8.973C4.01 69.612 0 65.595 0 60.64s4.01-8.973 8.957-8.973zm64.659-25.824c4.946 0 8.955 4.017 8.955 8.973s-4.01 8.973-8.955 8.973c-4.947 0-8.957-4.017-8.957-8.973s4.01-8.973 8.957-8.973zm-21.553 0c4.945 0 8.955 4.017 8.955 8.973s-4.01 8.973-8.955 8.973c-4.947 0-8.957-4.017-8.957-8.973s4.01-8.973 8.957-8.973zm-21.553 0c4.945 0 8.955 4.017 8.955 8.973s-4.01 8.973-8.955 8.973c-4.947 0-8.957-4.017-8.957-8.973s4.01-8.973 8.957-8.973zm-21.553 0c4.945 0 8.954 4.017 8.954 8.973s-4.009 8.973-8.954 8.973C4.01 43.788 0 39.77 0 34.815s4.01-8.973 8.957-8.973zM73.616.017c4.946 0 8.955 4.018 8.955 8.974 0 4.955-4.01 8.973-8.955 8.973-4.947 0-8.957-4.018-8.957-8.973 0-4.956 4.01-8.974 8.957-8.974zm-21.553 0c4.945 0 8.955 4.018 8.955 8.974 0 4.955-4.01 8.973-8.955 8.973-4.947 0-8.957-4.018-8.957-8.973 0-4.956 4.01-8.974 8.957-8.974zm-21.553 0c4.945 0 8.955 4.018 8.955 8.974 0 4.955-4.01 8.973-8.955 8.973-4.947 0-8.957-4.018-8.957-8.973 0-4.956 4.01-8.974 8.957-8.974zm-21.553 0c4.945 0 8.954 4.018 8.954 8.974 0 4.955-4.009 8.973-8.954 8.973C4.01 17.964 0 13.946 0 8.99 0 4.035 4.01.017 8.957.017z" id="e"/><path d="M73.616 154.964c4.946 0 8.955 4.016 8.955 8.973 0 4.956-4.01 8.973-8.955 8.973-4.947 0-8.957-4.017-8.957-8.973 0-4.957 4.01-8.973 8.957-8.973zm-21.553 0c4.945 0 8.955 4.016 8.955 8.973 0 4.956-4.01 8.973-8.955 8.973-4.947 0-8.957-4.017-8.957-8.973 0-4.957 4.01-8.973 8.957-8.973zm-21.553 0c4.945 0 8.955 4.016 8.955 8.973 0 4.956-4.01 8.973-8.955 8.973-4.947 0-8.957-4.017-8.957-8.973 0-4.957 4.01-8.973 8.957-8.973zm-21.553 0c4.945 0 8.954 4.016 8.954 8.973 0 4.956-4.009 8.973-8.954 8.973-4.947 0-8.957-4.017-8.957-8.973 0-4.957 4.01-8.973 8.957-8.973zm64.659-25.825c4.946 0 8.955 4.017 8.955 8.973s-4.01 8.973-8.955 8.973c-4.947 0-8.957-4.017-8.957-8.973s4.01-8.973 8.957-8.973zm-21.553 0c4.945 0 8.955 4.017 8.955 8.973s-4.01 8.973-8.955 8.973c-4.947 0-8.957-4.017-8.957-8.973s4.01-8.973 8.957-8.973zm-21.553 0c4.945 0 8.955 4.017 8.955 8.973s-4.01 8.973-8.955 8.973c-4.947 0-8.957-4.017-8.957-8.973s4.01-8.973 8.957-8.973zm-21.553 0c4.945 0 8.954 4.017 8.954 8.973s-4.009 8.973-8.954 8.973c-4.947 0-8.957-4.017-8.957-8.973s4.01-8.973 8.957-8.973zm64.659-25.824c4.946 0 8.955 4.016 8.955 8.973 0 4.956-4.01 8.973-8.955 8.973-4.947 0-8.957-4.017-8.957-8.973 0-4.957 4.01-8.973 8.957-8.973zm-21.553 0c4.945 0 8.955 4.016 8.955 8.973 0 4.956-4.01 8.973-8.955 8.973-4.947 0-8.957-4.017-8.957-8.973 0-4.957 4.01-8.973 8.957-8.973zm-21.553 0c4.945 0 8.955 4.016 8.955 8.973 0 4.956-4.01 8.973-8.955 8.973-4.947 0-8.957-4.017-8.957-8.973 0-4.957 4.01-8.973 8.957-8.973zm-21.553 0c4.945 0 8.954 4.016 8.954 8.973 0 4.956-4.009 8.973-8.954 8.973-4.947 0-8.957-4.017-8.957-8.973 0-4.957 4.01-8.973 8.957-8.973zM73.616 77.49c4.946 0 8.955 4.017 8.955 8.973 0 4.955-4.01 8.973-8.955 8.973-4.947 0-8.957-4.018-8.957-8.973 0-4.956 4.01-8.973 8.957-8.973zm-21.553 0c4.945 0 8.955 4.017 8.955 8.973 0 4.955-4.01 8.973-8.955 8.973-4.947 0-8.957-4.018-8.957-8.973 0-4.956 4.01-8.973 8.957-8.973zm-21.553 0c4.945 0 8.955 4.017 8.955 8.973 0 4.955-4.01 8.973-8.955 8.973-4.947 0-8.957-4.018-8.957-8.973 0-4.956 4.01-8.973 8.957-8.973zm-21.553 0c4.945 0 8.954 4.017 8.954 8.973 0 4.955-4.009 8.973-8.954 8.973C4.01 95.437 0 91.419 0 86.464c0-4.956 4.01-8.973 8.957-8.973zm64.659-25.825c4.946 0 8.955 4.017 8.955 8.973s-4.01 8.973-8.955 8.973c-4.947 0-8.957-4.017-8.957-8.973s4.01-8.973 8.957-8.973zm-21.553 0c4.945 0 8.955 4.017 8.955 8.973s-4.01 8.973-8.955 8.973c-4.947 0-8.957-4.017-8.957-8.973s4.01-8.973 8.957-8.973zm-21.553 0c4.945 0 8.955 4.017 8.955 8.973s-4.01 8.973-8.955 8.973c-4.947 0-8.957-4.017-8.957-8.973s4.01-8.973 8.957-8.973zm-21.553 0c4.945 0 8.954 4.017 8.954 8.973s-4.009 8.973-8.954 8.973C4.01 69.612 0 65.595 0 60.64s4.01-8.973 8.957-8.973zm64.659-25.824c4.946 0 8.955 4.017 8.955 8.973s-4.01 8.973-8.955 8.973c-4.947 0-8.957-4.017-8.957-8.973s4.01-8.973 8.957-8.973zm-21.553 0c4.945 0 8.955 4.017 8.955 8.973s-4.01 8.973-8.955 8.973c-4.947 0-8.957-4.017-8.957-8.973s4.01-8.973 8.957-8.973zm-21.553 0c4.945 0 8.955 4.017 8.955 8.973s-4.01 8.973-8.955 8.973c-4.947 0-8.957-4.017-8.957-8.973s4.01-8.973 8.957-8.973zm-21.553 0c4.945 0 8.954 4.017 8.954 8.973s-4.009 8.973-8.954 8.973C4.01 43.788 0 39.77 0 34.815s4.01-8.973 8.957-8.973zM73.616.017c4.946 0 8.955 4.018 8.955 8.974 0 4.955-4.01 8.973-8.955 8.973-4.947 0-8.957-4.018-8.957-8.973 0-4.956 4.01-8.974 8.957-8.974zm-21.553 0c4.945 0 8.955 4.018 8.955 8.974 0 4.955-4.01 8.973-8.955 8.973-4.947 0-8.957-4.018-8.957-8.973 0-4.956 4.01-8.974 8.957-8.974zm-21.553 0c4.945 0 8.955 4.018 8.955 8.974 0 4.955-4.01 8.973-8.955 8.973-4.947 0-8.957-4.018-8.957-8.973 0-4.956 4.01-8.974 8.957-8.974zm-21.553 0c4.945 0 8.954 4.018 8.954 8.974 0 4.955-4.009 8.973-8.954 8.973C4.01 17.964 0 13.946 0 8.99 0 4.035 4.01.017 8.957.017z" id="g"/></defs><g fill="none" fill-rule="evenodd"><g transform="rotate(90 -43 216)"><mask id="b" fill="#fff"><use xlink:href="#a"/></mask><use fill="#FFFFFF" xlink:href="#a"/><g mask="url(#b)" fill="#FFF"><path d="M0 0h83v173H0z"/></g></g><g transform="rotate(90 0 173)"><mask id="d" fill="#fff"><use xlink:href="#c"/></mask><use fill="#FFFFFF" xlink:href="#c"/><g mask="url(#d)" fill="#FFF"><path d="M0 0h83v173H0z"/></g></g><g transform="rotate(90 43.5 129.5)"><mask id="f" fill="#fff"><use xlink:href="#e"/></mask><use fill="#FFFFFF" xlink:href="#e"/><g mask="url(#f)" fill="#FFF"><path d="M0 0h83v173H0z"/></g></g><g transform="rotate(90 86.5 86.5)"><mask id="h" fill="#fff"><use xlink:href="#g"/></mask><use fill="#FFFFFF" xlink:href="#g"/><g mask="url(#h)" fill="#FFF"><path d="M0 0h83v173H0z"/></g></g></g></svg>
