<svg width="274" height="300" xmlns="http://www.w3.org/2000/svg" xmlns:xlink="http://www.w3.org/1999/xlink"><defs><path id="a" d="M0 0h90v131H0z"/><path d="M69.492 177.241v17.723H0v-17.723h69.492zm0-35.448v17.723H0v-17.723h69.492zm0-35.449v17.724H0v-17.724h69.492zm0-35.447V88.62H0V70.897h69.492zm0-35.448v17.723H0V35.45h69.492zm0-35.449v17.724H0V0h69.492z" id="c"/><path d="M69.492 177.241v17.723H0v-17.723h69.492zm0-35.448v17.723H0v-17.723h69.492zm0-35.449v17.724H0v-17.724h69.492zm0-35.447V88.62H0V70.897h69.492zm0-35.448v17.723H0V35.45h69.492zm0-35.449v17.724H0V0h69.492z" id="e"/><path id="g" d="M0 0h90v131H0z"/><path d="M69.492 177.241v17.723H0v-17.723h69.492zm0-35.448v17.723H0v-17.723h69.492zm0-35.449v17.724H0v-17.724h69.492zm0-35.447V88.62H0V70.897h69.492zm0-35.448v17.723H0V35.45h69.492zm0-35.449v17.724H0V0h69.492z" id="i"/></defs><g fill="none" fill-rule="evenodd"><g transform="translate(196 -1)"><mask id="b" fill="#fff"><use xlink:href="#a"/></mask><g mask="url(#b)"><g transform="translate(8 1)"><mask id="d" fill="#fff"><use xlink:href="#c"/></mask><use fill="#FFF" xlink:href="#c"/><g mask="url(#d)" fill="#FFF"><path d="M0 0h69.176v195H0z"/></g></g></g></g><g transform="translate(102 105)"><mask id="f" fill="#fff"><use xlink:href="#e"/></mask><use fill="#FFF" xlink:href="#e"/><g mask="url(#f)" fill="#FFF"><path d="M0 0h69.176v195H0z"/></g></g><g transform="translate(-8 66)"><mask id="h" fill="#fff"><use xlink:href="#g"/></mask><g mask="url(#h)"><g transform="translate(8 -103)"><mask id="j" fill="#fff"><use xlink:href="#i"/></mask><use fill="#4CA1D2" xlink:href="#i"/><g mask="url(#j)" fill="#FFF"><path d="M0 0h69.176v195H0z"/></g></g></g></g></g></svg>
