<svg xmlns="http://www.w3.org/2000/svg" xmlns:xlink="http://www.w3.org/1999/xlink" viewBox="0 0 61 127"><defs><path d="M54.103 113.76a6.584 6.584 0 016.582 6.587 6.584 6.584 0 01-6.582 6.587 6.585 6.585 0 01-6.582-6.587 6.584 6.584 0 016.582-6.588zm-15.84 0a6.584 6.584 0 016.582 6.587 6.584 6.584 0 01-6.582 6.587 6.585 6.585 0 01-6.582-6.587 6.584 6.584 0 016.582-6.588zm-15.84 0a6.584 6.584 0 016.581 6.587 6.584 6.584 0 01-6.581 6.587 6.585 6.585 0 01-6.583-6.587 6.584 6.584 0 016.583-6.588zm-15.84 0a6.583 6.583 0 016.58 6.587 6.584 6.584 0 01-6.58 6.587A6.585 6.585 0 010 120.347a6.584 6.584 0 016.583-6.588zm47.52-18.958a6.584 6.584 0 016.582 6.587 6.584 6.584 0 01-6.582 6.587 6.585 6.585 0 01-6.582-6.587 6.584 6.584 0 016.582-6.587zm-15.84 0a6.584 6.584 0 016.582 6.587 6.584 6.584 0 01-6.582 6.587 6.585 6.585 0 01-6.582-6.587 6.584 6.584 0 016.582-6.587zm-15.84 0a6.584 6.584 0 016.581 6.587 6.584 6.584 0 01-6.581 6.587 6.585 6.585 0 01-6.583-6.587 6.584 6.584 0 016.583-6.587zm-15.84 0a6.583 6.583 0 016.58 6.587 6.584 6.584 0 01-6.58 6.587A6.585 6.585 0 010 101.389a6.584 6.584 0 016.583-6.587zm47.52-18.958a6.584 6.584 0 016.582 6.587 6.584 6.584 0 01-6.582 6.587 6.585 6.585 0 01-6.582-6.587 6.584 6.584 0 016.582-6.587zm-15.84 0a6.584 6.584 0 016.582 6.587 6.584 6.584 0 01-6.582 6.587 6.585 6.585 0 01-6.582-6.587 6.584 6.584 0 016.582-6.587zm-15.84 0a6.584 6.584 0 016.581 6.587 6.584 6.584 0 01-6.581 6.587 6.585 6.585 0 01-6.583-6.587 6.584 6.584 0 016.583-6.587zm-15.84 0a6.583 6.583 0 016.58 6.587 6.584 6.584 0 01-6.58 6.587A6.585 6.585 0 010 82.431a6.584 6.584 0 016.583-6.587zm47.52-18.958a6.584 6.584 0 016.582 6.587 6.584 6.584 0 01-6.582 6.587 6.585 6.585 0 01-6.582-6.587 6.585 6.585 0 016.582-6.587zm-15.84 0a6.584 6.584 0 016.582 6.587 6.584 6.584 0 01-6.582 6.587 6.585 6.585 0 01-6.582-6.587 6.585 6.585 0 016.582-6.587zm-15.84 0a6.584 6.584 0 016.581 6.587 6.584 6.584 0 01-6.581 6.587 6.585 6.585 0 01-6.583-6.587 6.585 6.585 0 016.583-6.587zm-15.84 0a6.584 6.584 0 016.58 6.587 6.584 6.584 0 01-6.58 6.587A6.585 6.585 0 010 63.473a6.585 6.585 0 016.583-6.587zm47.52-18.958a6.584 6.584 0 016.582 6.588 6.584 6.584 0 01-6.582 6.587 6.585 6.585 0 01-6.582-6.587 6.585 6.585 0 016.582-6.588zm-15.84 0a6.584 6.584 0 016.582 6.588 6.584 6.584 0 01-6.582 6.587 6.585 6.585 0 01-6.582-6.587 6.585 6.585 0 016.582-6.588zm-15.84 0a6.584 6.584 0 016.581 6.588 6.584 6.584 0 01-6.581 6.587 6.585 6.585 0 01-6.583-6.587 6.585 6.585 0 016.583-6.588zm-15.84 0a6.584 6.584 0 016.58 6.588 6.584 6.584 0 01-6.58 6.587A6.585 6.585 0 010 44.516a6.585 6.585 0 016.583-6.588zm47.52-18.957a6.584 6.584 0 016.582 6.587 6.584 6.584 0 01-6.582 6.587 6.585 6.585 0 01-6.582-6.587 6.585 6.585 0 016.582-6.587zm-15.84 0a6.584 6.584 0 016.582 6.587 6.584 6.584 0 01-6.582 6.587 6.585 6.585 0 01-6.582-6.587 6.585 6.585 0 016.582-6.587zm-15.84 0a6.584 6.584 0 016.581 6.587 6.584 6.584 0 01-6.581 6.587 6.585 6.585 0 01-6.583-6.587 6.585 6.585 0 016.583-6.587zm-15.84 0a6.584 6.584 0 016.58 6.587 6.584 6.584 0 01-6.58 6.587A6.585 6.585 0 010 25.558a6.585 6.585 0 016.583-6.587zM54.103.013A6.584 6.584 0 0160.685 6.6a6.584 6.584 0 01-6.582 6.587A6.585 6.585 0 0147.521 6.6 6.585 6.585 0 0154.103.013zm-15.84 0A6.584 6.584 0 0144.845 6.6a6.584 6.584 0 01-6.582 6.587A6.585 6.585 0 0131.681 6.6 6.585 6.585 0 0138.263.013zm-15.84 0A6.584 6.584 0 0129.004 6.6a6.584 6.584 0 01-6.581 6.587A6.585 6.585 0 0115.84 6.6 6.585 6.585 0 0122.423.013zm-15.84 0a6.584 6.584 0 016.58 6.587 6.584 6.584 0 01-6.58 6.587A6.585 6.585 0 010 6.6 6.585 6.585 0 016.583.013z" id="a"></path></defs><g fill="none" fill-rule="evenodd"><mask id="b" fill="#fff"><use xlink:href="#a"></use></mask><use fill="#fff" xlink:href="#a"></use><g mask="url(#b)" fill="#FFF"><path d="M0 0h61v127H0z"></path></g></g></svg>
